<?xml version="1.0" encoding="UTF-8" standalone="no"?>
<!DOCTYPE svg PUBLIC "-//W3C//DTD SVG 1.1//EN"
 "http://www.w3.org/Graphics/SVG/1.1/DTD/svg11.dtd">
<!-- Generated by graphviz version 2.40.1 (20161225.0304)
 -->
<!-- Title: dependencies Pages: 1 -->
<svg width="532pt" height="211pt"
 viewBox="0.00 0.00 532.00 211.00" xmlns="http://www.w3.org/2000/svg" xmlns:xlink="http://www.w3.org/1999/xlink">
<g id="graph0" class="graph" transform="scale(1 1) rotate(0) translate(4 207)">
<title>dependencies</title>
<polygon fill="#ffffff" stroke="transparent" points="-4,4 -4,-207 528,-207 528,4 -4,4"/>
<text text-anchor="start" x="241.0091" y="-42.4" font-family="sans-serif" font-weight="bold" font-size="14.00" fill="#000000">Legend</text>
<polygon fill="#ffffb3" stroke="transparent" points="28,-10 28,-30 48,-30 48,-10 28,-10"/>
<text text-anchor="start" x="51.629" y="-15.4" font-family="sans-serif" font-size="14.00" fill="#000000"> &#160;Declarations</text>
<polygon fill="#8dd3c7" stroke="transparent" points="141,-10 141,-30 161,-30 161,-10 141,-10"/>
<text text-anchor="start" x="164.7251" y="-15.4" font-family="sans-serif" font-size="14.00" fill="#000000"> &#160;Module</text>
<polygon fill="#80b1d3" stroke="transparent" points="227,-10 227,-30 247,-30 247,-10 227,-10"/>
<text text-anchor="start" x="250.7812" y="-15.4" font-family="sans-serif" font-size="14.00" fill="#000000"> &#160;Bootstrap</text>
<polygon fill="#fdb462" stroke="transparent" points="324,-10 324,-30 344,-30 344,-10 324,-10"/>
<text text-anchor="start" x="347.6732" y="-15.4" font-family="sans-serif" font-size="14.00" fill="#000000"> &#160;Providers</text>
<polygon fill="#fb8072" stroke="transparent" points="420,-10 420,-30 440,-30 440,-10 420,-10"/>
<text text-anchor="start" x="443.7258" y="-15.4" font-family="sans-serif" font-size="14.00" fill="#000000"> &#160;Exports</text>
<g id="clust1" class="cluster">
<title>cluster_AuthorDetailsPageModule</title>
<polygon fill="none" stroke="#000000" stroke-dasharray="1,5" points="8,-70 8,-195 516,-195 516,-70 8,-70"/>
</g>
<g id="clust2" class="cluster">
<title>cluster_AuthorDetailsPageModule_declarations</title>
<polygon fill="none" stroke="#000000" points="304,-78 304,-130 508,-130 508,-78 304,-78"/>
</g>
<g id="clust4" class="cluster">
<title>cluster_AuthorDetailsPageModule_imports</title>
<polygon fill="none" stroke="#000000" points="182,-78 182,-130 296,-130 296,-78 182,-78"/>
</g>
<g id="clust7" class="cluster">
<title>cluster_AuthorDetailsPageModule_providers</title>
<polygon fill="none" stroke="#000000" points="16,-78 16,-130 174,-130 174,-78 16,-78"/>
</g>
<!-- AuthorDetailsPageComponent -->
<g id="node1" class="node">
<title>AuthorDetailsPageComponent</title>
<polygon fill="#ffffb3" stroke="#000000" points="499.8543,-122 312.1457,-122 312.1457,-86 499.8543,-86 499.8543,-122"/>
<text text-anchor="middle" x="406" y="-99.8" font-family="Times,serif" font-size="14.00" fill="#000000">AuthorDetailsPageComponent</text>
</g>
<!-- AuthorDetailsPageModule -->
<g id="node2" class="node">
<title>AuthorDetailsPageModule</title>
<polygon fill="#8dd3c7" stroke="#000000" points="322.0716,-187 319.0716,-191 298.0716,-191 295.0716,-187 155.9284,-187 155.9284,-151 322.0716,-151 322.0716,-187"/>
<text text-anchor="middle" x="239" y="-164.8" font-family="Times,serif" font-size="14.00" fill="#000000">AuthorDetailsPageModule</text>
</g>
<!-- AuthorDetailsPageComponent&#45;&gt;AuthorDetailsPageModule -->
<g id="edge1" class="edge">
<title>AuthorDetailsPageComponent&#45;&gt;AuthorDetailsPageModule</title>
<path fill="none" stroke="#000000" d="M317.0544,-122.1061C317.0544,-122.1061 317.0544,-140.991 317.0544,-140.991"/>
<polygon fill="#000000" stroke="#000000" points="313.5544,-140.9909 317.0544,-150.991 320.5544,-140.991 313.5544,-140.9909"/>
</g>
<!-- SharedModule -->
<g id="node3" class="node">
<title>SharedModule</title>
<polygon fill="#8dd3c7" stroke="#000000" points="288.4231,-122 285.4231,-126 264.4231,-126 261.4231,-122 189.5769,-122 189.5769,-86 288.4231,-86 288.4231,-122"/>
<text text-anchor="middle" x="239" y="-99.8" font-family="Times,serif" font-size="14.00" fill="#000000">SharedModule</text>
</g>
<!-- SharedModule&#45;&gt;AuthorDetailsPageModule -->
<g id="edge2" class="edge">
<title>SharedModule&#45;&gt;AuthorDetailsPageModule</title>
<path fill="none" stroke="#000000" d="M239,-122.1061C239,-122.1061 239,-140.991 239,-140.991"/>
<polygon fill="#000000" stroke="#000000" points="235.5001,-140.9909 239,-150.991 242.5001,-140.991 235.5001,-140.9909"/>
</g>
<!-- AuthorsService -->
<g id="node4" class="node">
<title>AuthorsService</title>
<ellipse fill="#fdb462" stroke="#000000" cx="95" cy="-104" rx="71.2056" ry="18"/>
<text text-anchor="middle" x="95" y="-99.8" font-family="Times,serif" font-size="14.00" fill="#000000">AuthorsService</text>
</g>
<!-- AuthorsService&#45;&gt;AuthorDetailsPageModule -->
<g id="edge3" class="edge">
<title>AuthorsService&#45;&gt;AuthorDetailsPageModule</title>
<path fill="none" stroke="#000000" d="M161.0335,-110.9561C161.0335,-110.9561 161.0335,-140.8074 161.0335,-140.8074"/>
<polygon fill="#000000" stroke="#000000" points="157.5336,-140.8074 161.0335,-150.8074 164.5336,-140.8075 157.5336,-140.8074"/>
</g>
</g>
</svg>
