<?xml version="1.0" encoding="UTF-8" standalone="no"?>
<!DOCTYPE svg PUBLIC "-//W3C//DTD SVG 1.1//EN"
 "http://www.w3.org/Graphics/SVG/1.1/DTD/svg11.dtd">
<!-- Generated by graphviz version 2.40.1 (20161225.0304)
 -->
<!-- Title: dependencies Pages: 1 -->
<svg width="1163pt" height="211pt"
 viewBox="0.00 0.00 1163.00 211.00" xmlns="http://www.w3.org/2000/svg" xmlns:xlink="http://www.w3.org/1999/xlink">
<g id="graph0" class="graph" transform="scale(1 1) rotate(0) translate(4 207)">
<title>dependencies</title>
<polygon fill="#ffffff" stroke="transparent" points="-4,4 -4,-207 1159,-207 1159,4 -4,4"/>
<text text-anchor="start" x="556.5091" y="-42.4" font-family="sans-serif" font-weight="bold" font-size="14.00" fill="#000000">Legend</text>
<polygon fill="#ffffb3" stroke="transparent" points="343.5,-10 343.5,-30 363.5,-30 363.5,-10 343.5,-10"/>
<text text-anchor="start" x="367.129" y="-15.4" font-family="sans-serif" font-size="14.00" fill="#000000"> &#160;Declarations</text>
<polygon fill="#8dd3c7" stroke="transparent" points="456.5,-10 456.5,-30 476.5,-30 476.5,-10 456.5,-10"/>
<text text-anchor="start" x="480.2251" y="-15.4" font-family="sans-serif" font-size="14.00" fill="#000000"> &#160;Module</text>
<polygon fill="#80b1d3" stroke="transparent" points="542.5,-10 542.5,-30 562.5,-30 562.5,-10 542.5,-10"/>
<text text-anchor="start" x="566.2812" y="-15.4" font-family="sans-serif" font-size="14.00" fill="#000000"> &#160;Bootstrap</text>
<polygon fill="#fdb462" stroke="transparent" points="639.5,-10 639.5,-30 659.5,-30 659.5,-10 639.5,-10"/>
<text text-anchor="start" x="663.1732" y="-15.4" font-family="sans-serif" font-size="14.00" fill="#000000"> &#160;Providers</text>
<polygon fill="#fb8072" stroke="transparent" points="735.5,-10 735.5,-30 755.5,-30 755.5,-10 735.5,-10"/>
<text text-anchor="start" x="759.2258" y="-15.4" font-family="sans-serif" font-size="14.00" fill="#000000"> &#160;Exports</text>
<g id="clust1" class="cluster">
<title>cluster_HomePageModule</title>
<polygon fill="none" stroke="#000000" stroke-dasharray="1,5" points="8,-70 8,-195 1147,-195 1147,-70 8,-70"/>
</g>
<g id="clust2" class="cluster">
<title>cluster_HomePageModule_declarations</title>
<polygon fill="none" stroke="#000000" points="824,-78 824,-130 1139,-130 1139,-78 824,-78"/>
</g>
<g id="clust5" class="cluster">
<title>cluster_HomePageModule_imports</title>
<polygon fill="none" stroke="#000000" points="702,-78 702,-130 816,-130 816,-78 702,-78"/>
</g>
<g id="clust8" class="cluster">
<title>cluster_HomePageModule_providers</title>
<polygon fill="none" stroke="#000000" points="16,-78 16,-130 694,-130 694,-78 16,-78"/>
</g>
<!-- BookCardComponent -->
<g id="node1" class="node">
<title>BookCardComponent</title>
<polygon fill="#ffffb3" stroke="#000000" points="1131.3809,-122 992.6191,-122 992.6191,-86 1131.3809,-86 1131.3809,-122"/>
<text text-anchor="middle" x="1062" y="-99.8" font-family="Times,serif" font-size="14.00" fill="#000000">BookCardComponent</text>
</g>
<!-- HomePageModule -->
<g id="node3" class="node">
<title>HomePageModule</title>
<polygon fill="#8dd3c7" stroke="#000000" points="675.4734,-187 672.4734,-191 651.4734,-191 648.4734,-187 554.5266,-187 554.5266,-151 675.4734,-151 675.4734,-187"/>
<text text-anchor="middle" x="615" y="-164.8" font-family="Times,serif" font-size="14.00" fill="#000000">HomePageModule</text>
</g>
<!-- BookCardComponent&#45;&gt;HomePageModule -->
<g id="edge1" class="edge">
<title>BookCardComponent&#45;&gt;HomePageModule</title>
<path fill="none" stroke="#000000" d="M1062,-122.2921C1062,-144.2057 1062,-178 1062,-178 1062,-178 685.7496,-178 685.7496,-178"/>
<polygon fill="#000000" stroke="#000000" points="685.7496,-174.5001 675.7496,-178 685.7496,-181.5001 685.7496,-174.5001"/>
</g>
<!-- HomePageComponent -->
<g id="node2" class="node">
<title>HomePageComponent</title>
<polygon fill="#ffffb3" stroke="#000000" points="974.2562,-122 831.7438,-122 831.7438,-86 974.2562,-86 974.2562,-122"/>
<text text-anchor="middle" x="903" y="-99.8" font-family="Times,serif" font-size="14.00" fill="#000000">HomePageComponent</text>
</g>
<!-- HomePageComponent&#45;&gt;HomePageModule -->
<g id="edge2" class="edge">
<title>HomePageComponent&#45;&gt;HomePageModule</title>
<path fill="none" stroke="#000000" d="M903,-122.1061C903,-141.3391 903,-169 903,-169 903,-169 685.7255,-169 685.7255,-169"/>
<polygon fill="#000000" stroke="#000000" points="685.7255,-165.5001 675.7255,-169 685.7254,-172.5001 685.7255,-165.5001"/>
</g>
<!-- SharedModule -->
<g id="node4" class="node">
<title>SharedModule</title>
<polygon fill="#8dd3c7" stroke="#000000" points="808.4231,-122 805.4231,-126 784.4231,-126 781.4231,-122 709.5769,-122 709.5769,-86 808.4231,-86 808.4231,-122"/>
<text text-anchor="middle" x="759" y="-99.8" font-family="Times,serif" font-size="14.00" fill="#000000">SharedModule</text>
</g>
<!-- SharedModule&#45;&gt;HomePageModule -->
<g id="edge3" class="edge">
<title>SharedModule&#45;&gt;HomePageModule</title>
<path fill="none" stroke="#000000" d="M759,-122.027C759,-138.3976 759,-160 759,-160 759,-160 685.6516,-160 685.6516,-160"/>
<polygon fill="#000000" stroke="#000000" points="685.6516,-156.5001 675.6516,-160 685.6516,-163.5001 685.6516,-156.5001"/>
</g>
<!-- AuthorsService -->
<g id="node5" class="node">
<title>AuthorsService</title>
<ellipse fill="#fdb462" stroke="#000000" cx="615" cy="-104" rx="71.2056" ry="18"/>
<text text-anchor="middle" x="615" y="-99.8" font-family="Times,serif" font-size="14.00" fill="#000000">AuthorsService</text>
</g>
<!-- AuthorsService&#45;&gt;HomePageModule -->
<g id="edge4" class="edge">
<title>AuthorsService&#45;&gt;HomePageModule</title>
<path fill="none" stroke="#000000" d="M615,-122.1061C615,-122.1061 615,-140.991 615,-140.991"/>
<polygon fill="#000000" stroke="#000000" points="611.5001,-140.9909 615,-150.991 618.5001,-140.991 611.5001,-140.9909"/>
</g>
<!-- BookGenresService -->
<g id="node6" class="node">
<title>BookGenresService</title>
<ellipse fill="#fdb462" stroke="#000000" cx="438" cy="-104" rx="88.023" ry="18"/>
<text text-anchor="middle" x="438" y="-99.8" font-family="Times,serif" font-size="14.00" fill="#000000">BookGenresService</text>
</g>
<!-- BookGenresService&#45;&gt;HomePageModule -->
<g id="edge5" class="edge">
<title>BookGenresService&#45;&gt;HomePageModule</title>
<path fill="none" stroke="#000000" d="M438,-122.027C438,-138.3976 438,-160 438,-160 438,-160 544.0866,-160 544.0866,-160"/>
<polygon fill="#000000" stroke="#000000" points="544.0867,-163.5001 554.0866,-160 544.0866,-156.5001 544.0867,-163.5001"/>
</g>
<!-- BooksService -->
<g id="node7" class="node">
<title>BooksService</title>
<ellipse fill="#fdb462" stroke="#000000" cx="267" cy="-104" rx="64.8467" ry="18"/>
<text text-anchor="middle" x="267" y="-99.8" font-family="Times,serif" font-size="14.00" fill="#000000">BooksService</text>
</g>
<!-- BooksService&#45;&gt;HomePageModule -->
<g id="edge6" class="edge">
<title>BooksService&#45;&gt;HomePageModule</title>
<path fill="none" stroke="#000000" d="M267,-122.1061C267,-141.3391 267,-169 267,-169 267,-169 544.383,-169 544.383,-169"/>
<polygon fill="#000000" stroke="#000000" points="544.3831,-172.5001 554.383,-169 544.383,-165.5001 544.3831,-172.5001"/>
</g>
<!-- PublishersService -->
<g id="node8" class="node">
<title>PublishersService</title>
<ellipse fill="#fdb462" stroke="#000000" cx="104" cy="-104" rx="80.4519" ry="18"/>
<text text-anchor="middle" x="104" y="-99.8" font-family="Times,serif" font-size="14.00" fill="#000000">PublishersService</text>
</g>
<!-- PublishersService&#45;&gt;HomePageModule -->
<g id="edge7" class="edge">
<title>PublishersService&#45;&gt;HomePageModule</title>
<path fill="none" stroke="#000000" d="M104,-122.2921C104,-144.2057 104,-178 104,-178 104,-178 544.3749,-178 544.3749,-178"/>
<polygon fill="#000000" stroke="#000000" points="544.375,-181.5001 554.3749,-178 544.3749,-174.5001 544.375,-181.5001"/>
</g>
</g>
</svg>
