<?xml version="1.0" encoding="UTF-8" standalone="no"?>
<!DOCTYPE svg PUBLIC "-//W3C//DTD SVG 1.1//EN"
 "http://www.w3.org/Graphics/SVG/1.1/DTD/svg11.dtd">
<!-- Generated by graphviz version 2.40.1 (20161225.0304)
 -->
<!-- Title: dependencies Pages: 1 -->
<svg width="526pt" height="211pt"
 viewBox="0.00 0.00 526.00 211.00" xmlns="http://www.w3.org/2000/svg" xmlns:xlink="http://www.w3.org/1999/xlink">
<g id="graph0" class="graph" transform="scale(1 1) rotate(0) translate(4 207)">
<title>dependencies</title>
<polygon fill="#ffffff" stroke="transparent" points="-4,4 -4,-207 522,-207 522,4 -4,4"/>
<text text-anchor="start" x="238.0091" y="-42.4" font-family="sans-serif" font-weight="bold" font-size="14.00" fill="#000000">Legend</text>
<polygon fill="#ffffb3" stroke="transparent" points="25,-10 25,-30 45,-30 45,-10 25,-10"/>
<text text-anchor="start" x="48.629" y="-15.4" font-family="sans-serif" font-size="14.00" fill="#000000"> &#160;Declarations</text>
<polygon fill="#8dd3c7" stroke="transparent" points="138,-10 138,-30 158,-30 158,-10 138,-10"/>
<text text-anchor="start" x="161.7251" y="-15.4" font-family="sans-serif" font-size="14.00" fill="#000000"> &#160;Module</text>
<polygon fill="#80b1d3" stroke="transparent" points="224,-10 224,-30 244,-30 244,-10 224,-10"/>
<text text-anchor="start" x="247.7812" y="-15.4" font-family="sans-serif" font-size="14.00" fill="#000000"> &#160;Bootstrap</text>
<polygon fill="#fdb462" stroke="transparent" points="321,-10 321,-30 341,-30 341,-10 321,-10"/>
<text text-anchor="start" x="344.6732" y="-15.4" font-family="sans-serif" font-size="14.00" fill="#000000"> &#160;Providers</text>
<polygon fill="#fb8072" stroke="transparent" points="417,-10 417,-30 437,-30 437,-10 417,-10"/>
<text text-anchor="start" x="440.7258" y="-15.4" font-family="sans-serif" font-size="14.00" fill="#000000"> &#160;Exports</text>
<g id="clust1" class="cluster">
<title>cluster_GenresPageModule</title>
<polygon fill="none" stroke="#000000" stroke-dasharray="1,5" points="8,-70 8,-195 510,-195 510,-70 8,-70"/>
</g>
<g id="clust2" class="cluster">
<title>cluster_GenresPageModule_declarations</title>
<polygon fill="none" stroke="#000000" points="338,-78 338,-130 502,-130 502,-78 338,-78"/>
</g>
<g id="clust4" class="cluster">
<title>cluster_GenresPageModule_imports</title>
<polygon fill="none" stroke="#000000" points="216,-78 216,-130 330,-130 330,-78 216,-78"/>
</g>
<g id="clust7" class="cluster">
<title>cluster_GenresPageModule_providers</title>
<polygon fill="none" stroke="#000000" points="16,-78 16,-130 208,-130 208,-78 16,-78"/>
</g>
<!-- GenresPageComponent -->
<g id="node1" class="node">
<title>GenresPageComponent</title>
<polygon fill="#ffffb3" stroke="#000000" points="494.1853,-122 345.8147,-122 345.8147,-86 494.1853,-86 494.1853,-122"/>
<text text-anchor="middle" x="420" y="-99.8" font-family="Times,serif" font-size="14.00" fill="#000000">GenresPageComponent</text>
</g>
<!-- GenresPageModule -->
<g id="node2" class="node">
<title>GenresPageModule</title>
<polygon fill="#8dd3c7" stroke="#000000" points="336.4032,-187 333.4032,-191 312.4032,-191 309.4032,-187 209.5968,-187 209.5968,-151 336.4032,-151 336.4032,-187"/>
<text text-anchor="middle" x="273" y="-164.8" font-family="Times,serif" font-size="14.00" fill="#000000">GenresPageModule</text>
</g>
<!-- GenresPageComponent&#45;&gt;GenresPageModule -->
<g id="edge1" class="edge">
<title>GenresPageComponent&#45;&gt;GenresPageModule</title>
<path fill="none" stroke="#000000" d="M345.8592,-104C335.9947,-104 329.2062,-104 329.2062,-104 329.2062,-104 329.2062,-140.8939 329.2062,-140.8939"/>
<polygon fill="#000000" stroke="#000000" points="325.7063,-140.8938 329.2062,-150.8939 332.7063,-140.8939 325.7063,-140.8938"/>
</g>
<!-- SharedModule -->
<g id="node3" class="node">
<title>SharedModule</title>
<polygon fill="#8dd3c7" stroke="#000000" points="322.4231,-122 319.4231,-126 298.4231,-126 295.4231,-122 223.5769,-122 223.5769,-86 322.4231,-86 322.4231,-122"/>
<text text-anchor="middle" x="273" y="-99.8" font-family="Times,serif" font-size="14.00" fill="#000000">SharedModule</text>
</g>
<!-- SharedModule&#45;&gt;GenresPageModule -->
<g id="edge2" class="edge">
<title>SharedModule&#45;&gt;GenresPageModule</title>
<path fill="none" stroke="#000000" d="M273,-122.1061C273,-122.1061 273,-140.991 273,-140.991"/>
<polygon fill="#000000" stroke="#000000" points="269.5001,-140.9909 273,-150.991 276.5001,-140.991 269.5001,-140.9909"/>
</g>
<!-- BookGenresService -->
<g id="node4" class="node">
<title>BookGenresService</title>
<ellipse fill="#fdb462" stroke="#000000" cx="112" cy="-104" rx="88.023" ry="18"/>
<text text-anchor="middle" x="112" y="-99.8" font-family="Times,serif" font-size="14.00" fill="#000000">BookGenresService</text>
</g>
<!-- BookGenresService&#45;&gt;GenresPageModule -->
<g id="edge3" class="edge">
<title>BookGenresService&#45;&gt;GenresPageModule</title>
<path fill="none" stroke="#000000" d="M200.4198,-104C210.2442,-104 216.7938,-104 216.7938,-104 216.7938,-104 216.7938,-140.8939 216.7938,-140.8939"/>
<polygon fill="#000000" stroke="#000000" points="213.2939,-140.8938 216.7938,-150.8939 220.2939,-140.8939 213.2939,-140.8938"/>
</g>
</g>
</svg>
