<?xml version="1.0" encoding="UTF-8" standalone="no"?>
<!DOCTYPE svg PUBLIC "-//W3C//DTD SVG 1.1//EN"
 "http://www.w3.org/Graphics/SVG/1.1/DTD/svg11.dtd">
<!-- Generated by graphviz version 2.40.1 (20161225.0304)
 -->
<!-- Title: dependencies Pages: 1 -->
<svg width="504pt" height="284pt"
 viewBox="0.00 0.00 504.00 284.00" xmlns="http://www.w3.org/2000/svg" xmlns:xlink="http://www.w3.org/1999/xlink">
<g id="graph0" class="graph" transform="scale(1 1) rotate(0) translate(4 280)">
<title>dependencies</title>
<polygon fill="#ffffff" stroke="transparent" points="-4,4 -4,-280 500,-280 500,4 -4,4"/>
<text text-anchor="start" x="227.0091" y="-42.4" font-family="sans-serif" font-weight="bold" font-size="14.00" fill="#000000">Legend</text>
<polygon fill="#ffffb3" stroke="transparent" points="14,-10 14,-30 34,-30 34,-10 14,-10"/>
<text text-anchor="start" x="37.629" y="-15.4" font-family="sans-serif" font-size="14.00" fill="#000000"> &#160;Declarations</text>
<polygon fill="#8dd3c7" stroke="transparent" points="127,-10 127,-30 147,-30 147,-10 127,-10"/>
<text text-anchor="start" x="150.7251" y="-15.4" font-family="sans-serif" font-size="14.00" fill="#000000"> &#160;Module</text>
<polygon fill="#80b1d3" stroke="transparent" points="213,-10 213,-30 233,-30 233,-10 213,-10"/>
<text text-anchor="start" x="236.7812" y="-15.4" font-family="sans-serif" font-size="14.00" fill="#000000"> &#160;Bootstrap</text>
<polygon fill="#fdb462" stroke="transparent" points="310,-10 310,-30 330,-30 330,-10 310,-10"/>
<text text-anchor="start" x="333.6732" y="-15.4" font-family="sans-serif" font-size="14.00" fill="#000000"> &#160;Providers</text>
<polygon fill="#fb8072" stroke="transparent" points="406,-10 406,-30 426,-30 426,-10 406,-10"/>
<text text-anchor="start" x="429.7258" y="-15.4" font-family="sans-serif" font-size="14.00" fill="#000000"> &#160;Exports</text>
<g id="clust1" class="cluster">
<title>cluster_BootstrapModule</title>
<polygon fill="none" stroke="#000000" stroke-dasharray="1,5" points="182,-70 182,-268 314,-268 314,-70 182,-70"/>
</g>
<g id="clust3" class="cluster">
<title>cluster_BootstrapModule_imports</title>
<polygon fill="none" stroke="#000000" points="192,-78 192,-130 304,-130 304,-78 192,-78"/>
</g>
<g id="clust4" class="cluster">
<title>cluster_BootstrapModule_exports</title>
<polygon fill="none" stroke="#000000" points="190,-208 190,-260 306,-260 306,-208 190,-208"/>
</g>
<!-- ModalModule -->
<g id="node1" class="node">
<title>ModalModule</title>
<polygon fill="#8dd3c7" stroke="#000000" points="296.0997,-122 293.0997,-126 272.0997,-126 269.0997,-122 199.9003,-122 199.9003,-86 296.0997,-86 296.0997,-122"/>
<text text-anchor="middle" x="248" y="-99.8" font-family="Times,serif" font-size="14.00" fill="#000000">ModalModule</text>
</g>
<!-- BootstrapModule -->
<g id="node2" class="node">
<title>BootstrapModule</title>
<polygon fill="#8dd3c7" stroke="#000000" points="304.9874,-187 301.9874,-191 280.9874,-191 277.9874,-187 191.0126,-187 191.0126,-151 304.9874,-151 304.9874,-187"/>
<text text-anchor="middle" x="248" y="-164.8" font-family="Times,serif" font-size="14.00" fill="#000000">BootstrapModule</text>
</g>
<!-- ModalModule&#45;&gt;BootstrapModule -->
<g id="edge1" class="edge">
<title>ModalModule&#45;&gt;BootstrapModule</title>
<path fill="none" stroke="#000000" d="M248,-122.1061C248,-122.1061 248,-140.991 248,-140.991"/>
<polygon fill="#000000" stroke="#000000" points="244.5001,-140.9909 248,-150.991 251.5001,-140.991 244.5001,-140.9909"/>
</g>
<!-- ModalModule  -->
<g id="node3" class="node">
<title>ModalModule </title>
<polygon fill="#fb8072" stroke="#000000" points="297.6004,-252 198.3996,-252 198.3996,-216 297.6004,-216 297.6004,-252"/>
<text text-anchor="middle" x="248" y="-229.8" font-family="Times,serif" font-size="14.00" fill="#000000">ModalModule </text>
</g>
<!-- BootstrapModule&#45;&gt;ModalModule  -->
<g id="edge2" class="edge">
<title>BootstrapModule&#45;&gt;ModalModule </title>
<path fill="none" stroke="#000000" stroke-dasharray="5,2" d="M248,-187.1061C248,-187.1061 248,-205.991 248,-205.991"/>
<polygon fill="#000000" stroke="#000000" points="244.5001,-205.9909 248,-215.991 251.5001,-205.991 244.5001,-205.9909"/>
</g>
</g>
</svg>
