<?xml version="1.0" encoding="UTF-8" standalone="no"?>
<!DOCTYPE svg PUBLIC "-//W3C//DTD SVG 1.1//EN"
 "http://www.w3.org/Graphics/SVG/1.1/DTD/svg11.dtd">
<!-- Generated by graphviz version 2.40.1 (20161225.0304)
 -->
<!-- Title: dependencies Pages: 1 -->
<svg width="528pt" height="211pt"
 viewBox="0.00 0.00 528.00 211.00" xmlns="http://www.w3.org/2000/svg" xmlns:xlink="http://www.w3.org/1999/xlink">
<g id="graph0" class="graph" transform="scale(1 1) rotate(0) translate(4 207)">
<title>dependencies</title>
<polygon fill="#ffffff" stroke="transparent" points="-4,4 -4,-207 524,-207 524,4 -4,4"/>
<text text-anchor="start" x="239.0091" y="-42.4" font-family="sans-serif" font-weight="bold" font-size="14.00" fill="#000000">Legend</text>
<polygon fill="#ffffb3" stroke="transparent" points="26,-10 26,-30 46,-30 46,-10 26,-10"/>
<text text-anchor="start" x="49.629" y="-15.4" font-family="sans-serif" font-size="14.00" fill="#000000"> &#160;Declarations</text>
<polygon fill="#8dd3c7" stroke="transparent" points="139,-10 139,-30 159,-30 159,-10 139,-10"/>
<text text-anchor="start" x="162.7251" y="-15.4" font-family="sans-serif" font-size="14.00" fill="#000000"> &#160;Module</text>
<polygon fill="#80b1d3" stroke="transparent" points="225,-10 225,-30 245,-30 245,-10 225,-10"/>
<text text-anchor="start" x="248.7812" y="-15.4" font-family="sans-serif" font-size="14.00" fill="#000000"> &#160;Bootstrap</text>
<polygon fill="#fdb462" stroke="transparent" points="322,-10 322,-30 342,-30 342,-10 322,-10"/>
<text text-anchor="start" x="345.6732" y="-15.4" font-family="sans-serif" font-size="14.00" fill="#000000"> &#160;Providers</text>
<polygon fill="#fb8072" stroke="transparent" points="418,-10 418,-30 438,-30 438,-10 418,-10"/>
<text text-anchor="start" x="441.7258" y="-15.4" font-family="sans-serif" font-size="14.00" fill="#000000"> &#160;Exports</text>
<g id="clust1" class="cluster">
<title>cluster_PublishersPageModule</title>
<polygon fill="none" stroke="#000000" stroke-dasharray="1,5" points="8,-70 8,-195 512,-195 512,-70 8,-70"/>
</g>
<g id="clust2" class="cluster">
<title>cluster_PublishersPageModule_declarations</title>
<polygon fill="none" stroke="#000000" points="322,-78 322,-130 504,-130 504,-78 322,-78"/>
</g>
<g id="clust4" class="cluster">
<title>cluster_PublishersPageModule_imports</title>
<polygon fill="none" stroke="#000000" points="200,-78 200,-130 314,-130 314,-78 200,-78"/>
</g>
<g id="clust7" class="cluster">
<title>cluster_PublishersPageModule_providers</title>
<polygon fill="none" stroke="#000000" points="16,-78 16,-130 192,-130 192,-78 16,-78"/>
</g>
<!-- PublishersPageComponent -->
<g id="node1" class="node">
<title>PublishersPageComponent</title>
<polygon fill="#ffffb3" stroke="#000000" points="496.3724,-122 329.6276,-122 329.6276,-86 496.3724,-86 496.3724,-122"/>
<text text-anchor="middle" x="413" y="-99.8" font-family="Times,serif" font-size="14.00" fill="#000000">PublishersPageComponent</text>
</g>
<!-- PublishersPageModule -->
<g id="node2" class="node">
<title>PublishersPageModule</title>
<polygon fill="#8dd3c7" stroke="#000000" points="329.5898,-187 326.5898,-191 305.5898,-191 302.5898,-187 184.4102,-187 184.4102,-151 329.5898,-151 329.5898,-187"/>
<text text-anchor="middle" x="257" y="-164.8" font-family="Times,serif" font-size="14.00" fill="#000000">PublishersPageModule</text>
</g>
<!-- PublishersPageComponent&#45;&gt;PublishersPageModule -->
<g id="edge1" class="edge">
<title>PublishersPageComponent&#45;&gt;PublishersPageModule</title>
<path fill="none" stroke="#000000" d="M329.5418,-104C322.4297,-104 317.878,-104 317.878,-104 317.878,-104 317.878,-140.8939 317.878,-140.8939"/>
<polygon fill="#000000" stroke="#000000" points="314.3781,-140.8938 317.878,-150.8939 321.3781,-140.8939 314.3781,-140.8938"/>
</g>
<!-- SharedModule -->
<g id="node3" class="node">
<title>SharedModule</title>
<polygon fill="#8dd3c7" stroke="#000000" points="306.4231,-122 303.4231,-126 282.4231,-126 279.4231,-122 207.5769,-122 207.5769,-86 306.4231,-86 306.4231,-122"/>
<text text-anchor="middle" x="257" y="-99.8" font-family="Times,serif" font-size="14.00" fill="#000000">SharedModule</text>
</g>
<!-- SharedModule&#45;&gt;PublishersPageModule -->
<g id="edge2" class="edge">
<title>SharedModule&#45;&gt;PublishersPageModule</title>
<path fill="none" stroke="#000000" d="M257,-122.1061C257,-122.1061 257,-140.991 257,-140.991"/>
<polygon fill="#000000" stroke="#000000" points="253.5001,-140.9909 257,-150.991 260.5001,-140.991 253.5001,-140.9909"/>
</g>
<!-- PublishersService -->
<g id="node4" class="node">
<title>PublishersService</title>
<ellipse fill="#fdb462" stroke="#000000" cx="104" cy="-104" rx="80.4519" ry="18"/>
<text text-anchor="middle" x="104" y="-99.8" font-family="Times,serif" font-size="14.00" fill="#000000">PublishersService</text>
</g>
<!-- PublishersService&#45;&gt;PublishersPageModule -->
<g id="edge3" class="edge">
<title>PublishersService&#45;&gt;PublishersPageModule</title>
<path fill="none" stroke="#000000" d="M184.4547,-104C191.555,-104 196.122,-104 196.122,-104 196.122,-104 196.122,-140.8939 196.122,-140.8939"/>
<polygon fill="#000000" stroke="#000000" points="192.6221,-140.8938 196.122,-150.8939 199.6221,-140.8939 192.6221,-140.8938"/>
</g>
</g>
</svg>
