<?xml version="1.0" encoding="UTF-8" standalone="no"?>
<!DOCTYPE svg PUBLIC "-//W3C//DTD SVG 1.1//EN"
 "http://www.w3.org/Graphics/SVG/1.1/DTD/svg11.dtd">
<!-- Generated by graphviz version 2.40.1 (20161225.0304)
 -->
<!-- Title: dependencies Pages: 1 -->
<svg width="978pt" height="284pt"
 viewBox="0.00 0.00 978.00 284.00" xmlns="http://www.w3.org/2000/svg" xmlns:xlink="http://www.w3.org/1999/xlink">
<g id="graph0" class="graph" transform="scale(1 1) rotate(0) translate(4 280)">
<title>dependencies</title>
<polygon fill="#ffffff" stroke="transparent" points="-4,4 -4,-280 974,-280 974,4 -4,4"/>
<text text-anchor="start" x="464.0091" y="-42.4" font-family="sans-serif" font-weight="bold" font-size="14.00" fill="#000000">Legend</text>
<polygon fill="#ffffb3" stroke="transparent" points="251,-10 251,-30 271,-30 271,-10 251,-10"/>
<text text-anchor="start" x="274.629" y="-15.4" font-family="sans-serif" font-size="14.00" fill="#000000"> &#160;Declarations</text>
<polygon fill="#8dd3c7" stroke="transparent" points="364,-10 364,-30 384,-30 384,-10 364,-10"/>
<text text-anchor="start" x="387.7251" y="-15.4" font-family="sans-serif" font-size="14.00" fill="#000000"> &#160;Module</text>
<polygon fill="#80b1d3" stroke="transparent" points="450,-10 450,-30 470,-30 470,-10 450,-10"/>
<text text-anchor="start" x="473.7812" y="-15.4" font-family="sans-serif" font-size="14.00" fill="#000000"> &#160;Bootstrap</text>
<polygon fill="#fdb462" stroke="transparent" points="547,-10 547,-30 567,-30 567,-10 547,-10"/>
<text text-anchor="start" x="570.6732" y="-15.4" font-family="sans-serif" font-size="14.00" fill="#000000"> &#160;Providers</text>
<polygon fill="#fb8072" stroke="transparent" points="643,-10 643,-30 663,-30 663,-10 643,-10"/>
<text text-anchor="start" x="666.7258" y="-15.4" font-family="sans-serif" font-size="14.00" fill="#000000"> &#160;Exports</text>
<g id="clust1" class="cluster">
<title>cluster_ModalModule</title>
<polygon fill="none" stroke="#000000" stroke-dasharray="1,5" points="8,-70 8,-268 962,-268 962,-70 8,-70"/>
</g>
<g id="clust2" class="cluster">
<title>cluster_ModalModule_declarations</title>
<polygon fill="none" stroke="#000000" points="138,-78 138,-130 954,-130 954,-78 138,-78"/>
</g>
<g id="clust8" class="cluster">
<title>cluster_ModalModule_imports</title>
<polygon fill="none" stroke="#000000" points="16,-78 16,-130 130,-130 130,-78 16,-78"/>
</g>
<g id="clust9" class="cluster">
<title>cluster_ModalModule_exports</title>
<polygon fill="none" stroke="#000000" points="186,-208 186,-260 930,-260 930,-208 186,-208"/>
</g>
<!-- AuthorFormComponent -->
<g id="node1" class="node">
<title>AuthorFormComponent</title>
<polygon fill="#ffffb3" stroke="#000000" points="945.8243,-122 942.8243,-126 921.8243,-126 918.8243,-122 794.1757,-122 794.1757,-86 945.8243,-86 945.8243,-122"/>
<text text-anchor="middle" x="870" y="-99.8" font-family="Times,serif" font-size="14.00" fill="#000000">AuthorFormComponent</text>
</g>
<!-- ModalModule -->
<g id="node6" class="node">
<title>ModalModule</title>
<polygon fill="#8dd3c7" stroke="#000000" points="591.0997,-187 588.0997,-191 567.0997,-191 564.0997,-187 494.9003,-187 494.9003,-151 591.0997,-151 591.0997,-187"/>
<text text-anchor="middle" x="543" y="-164.8" font-family="Times,serif" font-size="14.00" fill="#000000">ModalModule</text>
</g>
<!-- AuthorFormComponent&#45;&gt;ModalModule -->
<g id="edge1" class="edge">
<title>AuthorFormComponent&#45;&gt;ModalModule</title>
<path fill="none" stroke="#000000" d="M879.7207,-122.2228C879.7207,-142.3652 879.7207,-172 879.7207,-172 879.7207,-172 601.2439,-172 601.2439,-172"/>
<polygon fill="#000000" stroke="#000000" points="601.2439,-168.5001 591.2439,-172 601.2438,-175.5001 601.2439,-168.5001"/>
</g>
<!-- AuthorFormComponent&#45;&gt;ModalModule -->
<g id="edge6" class="edge">
<title>AuthorFormComponent&#45;&gt;ModalModule</title>
<path fill="none" stroke="#000000" d="M837.0293,-122.2222C837.0293,-140.8285 837.0293,-167 837.0293,-167 837.0293,-167 601.2237,-167 601.2237,-167"/>
<polygon fill="#000000" stroke="#000000" points="601.2238,-163.5001 591.2237,-167 601.2237,-170.5001 601.2238,-163.5001"/>
</g>
<!-- BookFormComponent -->
<g id="node2" class="node">
<title>BookFormComponent</title>
<polygon fill="#ffffb3" stroke="#000000" points="776.0028,-122 773.0028,-126 752.0028,-126 749.0028,-122 633.9972,-122 633.9972,-86 776.0028,-86 776.0028,-122"/>
<text text-anchor="middle" x="705" y="-99.8" font-family="Times,serif" font-size="14.00" fill="#000000">BookFormComponent</text>
</g>
<!-- BookFormComponent&#45;&gt;ModalModule -->
<g id="edge2" class="edge">
<title>BookFormComponent&#45;&gt;ModalModule</title>
<path fill="none" stroke="#000000" d="M711.1671,-122.0336C711.1671,-139.0597 711.1671,-162 711.1671,-162 711.1671,-162 601.19,-162 601.19,-162"/>
<polygon fill="#000000" stroke="#000000" points="601.19,-158.5001 591.19,-162 601.1899,-165.5001 601.19,-158.5001"/>
</g>
<!-- BookFormComponent&#45;&gt;ModalModule -->
<g id="edge7" class="edge">
<title>BookFormComponent&#45;&gt;ModalModule</title>
<path fill="none" stroke="#000000" d="M672.5829,-122.2396C672.5829,-137.5706 672.5829,-157 672.5829,-157 672.5829,-157 601.2519,-157 601.2519,-157"/>
<polygon fill="#000000" stroke="#000000" points="601.2519,-153.5001 591.2519,-157 601.2518,-160.5001 601.2519,-153.5001"/>
</g>
<!-- GenreFormComponent -->
<g id="node3" class="node">
<title>GenreFormComponent</title>
<polygon fill="#ffffb3" stroke="#000000" points="615.8627,-122 612.8627,-126 591.8627,-126 588.8627,-122 470.1373,-122 470.1373,-86 615.8627,-86 615.8627,-122"/>
<text text-anchor="middle" x="543" y="-99.8" font-family="Times,serif" font-size="14.00" fill="#000000">GenreFormComponent</text>
</g>
<!-- GenreFormComponent&#45;&gt;ModalModule -->
<g id="edge3" class="edge">
<title>GenreFormComponent&#45;&gt;ModalModule</title>
<path fill="none" stroke="#000000" d="M526.9834,-122.1061C526.9834,-122.1061 526.9834,-140.991 526.9834,-140.991"/>
<polygon fill="#000000" stroke="#000000" points="523.4835,-140.9909 526.9834,-150.991 530.4835,-140.991 523.4835,-140.9909"/>
</g>
<!-- GenreFormComponent&#45;&gt;ModalModule -->
<g id="edge8" class="edge">
<title>GenreFormComponent&#45;&gt;ModalModule</title>
<path fill="none" stroke="#000000" d="M559.0166,-122.1061C559.0166,-122.1061 559.0166,-140.991 559.0166,-140.991"/>
<polygon fill="#000000" stroke="#000000" points="555.5167,-140.9909 559.0166,-150.991 562.5167,-140.991 555.5167,-140.9909"/>
</g>
<!-- ModalComponent -->
<g id="node4" class="node">
<title>ModalComponent</title>
<polygon fill="#ffffb3" stroke="#000000" points="451.8823,-122 448.8823,-126 427.8823,-126 424.8823,-122 334.1177,-122 334.1177,-86 451.8823,-86 451.8823,-122"/>
<text text-anchor="middle" x="393" y="-99.8" font-family="Times,serif" font-size="14.00" fill="#000000">ModalComponent</text>
</g>
<!-- ModalComponent&#45;&gt;ModalModule -->
<g id="edge4" class="edge">
<title>ModalComponent&#45;&gt;ModalModule</title>
<path fill="none" stroke="#000000" d="M373.353,-122.0336C373.353,-139.0597 373.353,-162 373.353,-162 373.353,-162 484.8398,-162 484.8398,-162"/>
<polygon fill="#000000" stroke="#000000" points="484.8398,-165.5001 494.8398,-162 484.8397,-158.5001 484.8398,-165.5001"/>
</g>
<!-- ModalComponent&#45;&gt;ModalModule -->
<g id="edge9" class="edge">
<title>ModalComponent&#45;&gt;ModalModule</title>
<path fill="none" stroke="#000000" d="M412.647,-122.2396C412.647,-137.5706 412.647,-157 412.647,-157 412.647,-157 484.8317,-157 484.8317,-157"/>
<polygon fill="#000000" stroke="#000000" points="484.8318,-160.5001 494.8317,-157 484.8317,-153.5001 484.8318,-160.5001"/>
</g>
<!-- PublishersFormComponent -->
<g id="node5" class="node">
<title>PublishersFormComponent</title>
<polygon fill="#ffffb3" stroke="#000000" points="315.9944,-122 146.0056,-122 146.0056,-86 315.9944,-86 315.9944,-122"/>
<text text-anchor="middle" x="231" y="-99.8" font-family="Times,serif" font-size="14.00" fill="#000000">PublishersFormComponent</text>
</g>
<!-- PublishersFormComponent&#45;&gt;ModalModule -->
<g id="edge5" class="edge">
<title>PublishersFormComponent&#45;&gt;ModalModule</title>
<path fill="none" stroke="#000000" d="M234.7696,-122.2222C234.7696,-140.8285 234.7696,-167 234.7696,-167 234.7696,-167 484.839,-167 484.839,-167"/>
<polygon fill="#000000" stroke="#000000" points="484.839,-170.5001 494.839,-167 484.839,-163.5001 484.839,-170.5001"/>
</g>
<!-- AuthorFormComponent  -->
<g id="node8" class="node">
<title>AuthorFormComponent </title>
<polygon fill="#fb8072" stroke="#000000" points="922.3241,-252 767.6759,-252 767.6759,-216 922.3241,-216 922.3241,-252"/>
<text text-anchor="middle" x="845" y="-229.8" font-family="Times,serif" font-size="14.00" fill="#000000">AuthorFormComponent </text>
</g>
<!-- ModalModule&#45;&gt;AuthorFormComponent  -->
<g id="edge11" class="edge">
<title>ModalModule&#45;&gt;AuthorFormComponent </title>
<path fill="none" stroke="#000000" stroke-dasharray="5,2" d="M591.2419,-177C658.3677,-177 771.7947,-177 771.7947,-177 771.7947,-177 771.7947,-205.9648 771.7947,-205.9648"/>
<polygon fill="#000000" stroke="#000000" points="768.2948,-205.9648 771.7947,-215.9648 775.2948,-205.9649 768.2948,-205.9648"/>
</g>
<!-- BookFormComponent  -->
<g id="node9" class="node">
<title>BookFormComponent </title>
<polygon fill="#fb8072" stroke="#000000" points="749.5036,-252 604.4964,-252 604.4964,-216 749.5036,-216 749.5036,-252"/>
<text text-anchor="middle" x="677" y="-229.8" font-family="Times,serif" font-size="14.00" fill="#000000">BookFormComponent </text>
</g>
<!-- ModalModule&#45;&gt;BookFormComponent  -->
<g id="edge12" class="edge">
<title>ModalModule&#45;&gt;BookFormComponent </title>
<path fill="none" stroke="#000000" stroke-dasharray="5,2" d="M591.4017,-182C601.9811,-182 610.09,-182 610.09,-182 610.09,-182 610.09,-205.8129 610.09,-205.8129"/>
<polygon fill="#000000" stroke="#000000" points="606.59,-205.8129 610.09,-215.8129 613.59,-205.813 606.59,-205.8129"/>
</g>
<!-- FormGroup  -->
<g id="node10" class="node">
<title>FormGroup </title>
<polygon fill="#fb8072" stroke="#000000" points="585.6019,-252 500.3981,-252 500.3981,-216 585.6019,-216 585.6019,-252"/>
<text text-anchor="middle" x="543" y="-229.8" font-family="Times,serif" font-size="14.00" fill="#000000">FormGroup </text>
</g>
<!-- ModalModule&#45;&gt;FormGroup  -->
<g id="edge13" class="edge">
<title>ModalModule&#45;&gt;FormGroup </title>
<path fill="none" stroke="#000000" stroke-dasharray="5,2" d="M543,-187.1061C543,-187.1061 543,-205.991 543,-205.991"/>
<polygon fill="#000000" stroke="#000000" points="539.5001,-205.9909 543,-215.991 546.5001,-205.991 539.5001,-205.9909"/>
</g>
<!-- GenreFormComponent  -->
<g id="node11" class="node">
<title>GenreFormComponent </title>
<polygon fill="#fb8072" stroke="#000000" points="482.863,-252 333.137,-252 333.137,-216 482.863,-216 482.863,-252"/>
<text text-anchor="middle" x="408" y="-229.8" font-family="Times,serif" font-size="14.00" fill="#000000">GenreFormComponent </text>
</g>
<!-- ModalModule&#45;&gt;GenreFormComponent  -->
<g id="edge14" class="edge">
<title>ModalModule&#45;&gt;GenreFormComponent </title>
<path fill="none" stroke="#000000" stroke-dasharray="5,2" d="M494.9338,-182C484.4276,-182 476.375,-182 476.375,-182 476.375,-182 476.375,-205.8129 476.375,-205.8129"/>
<polygon fill="#000000" stroke="#000000" points="472.8751,-205.8129 476.375,-215.8129 479.8751,-205.813 472.8751,-205.8129"/>
</g>
<!-- ModalComponent  -->
<g id="node12" class="node">
<title>ModalComponent </title>
<polygon fill="#fb8072" stroke="#000000" points="315.8828,-252 194.1172,-252 194.1172,-216 315.8828,-216 315.8828,-252"/>
<text text-anchor="middle" x="255" y="-229.8" font-family="Times,serif" font-size="14.00" fill="#000000">ModalComponent </text>
</g>
<!-- ModalModule&#45;&gt;ModalComponent  -->
<g id="edge15" class="edge">
<title>ModalModule&#45;&gt;ModalComponent </title>
<path fill="none" stroke="#000000" stroke-dasharray="5,2" d="M494.8189,-177C417.7263,-177 275.2304,-177 275.2304,-177 275.2304,-177 275.2304,-205.9648 275.2304,-205.9648"/>
<polygon fill="#000000" stroke="#000000" points="271.7305,-205.9648 275.2304,-215.9648 278.7305,-205.9649 271.7305,-205.9648"/>
</g>
<!-- SharedModule -->
<g id="node7" class="node">
<title>SharedModule</title>
<polygon fill="#8dd3c7" stroke="#000000" points="122.4231,-122 119.4231,-126 98.4231,-126 95.4231,-122 23.5769,-122 23.5769,-86 122.4231,-86 122.4231,-122"/>
<text text-anchor="middle" x="73" y="-99.8" font-family="Times,serif" font-size="14.00" fill="#000000">SharedModule</text>
</g>
<!-- SharedModule&#45;&gt;ModalModule -->
<g id="edge10" class="edge">
<title>SharedModule&#45;&gt;ModalModule</title>
<path fill="none" stroke="#000000" d="M73,-122.2228C73,-142.3652 73,-172 73,-172 73,-172 484.9105,-172 484.9105,-172"/>
<polygon fill="#000000" stroke="#000000" points="484.9105,-175.5001 494.9105,-172 484.9105,-168.5001 484.9105,-175.5001"/>
</g>
</g>
</svg>
