<?xml version="1.0" encoding="UTF-8" standalone="no"?>
<!DOCTYPE svg PUBLIC "-//W3C//DTD SVG 1.1//EN"
 "http://www.w3.org/Graphics/SVG/1.1/DTD/svg11.dtd">
<!-- Generated by graphviz version 2.40.1 (20161225.0304)
 -->
<!-- Title: dependencies Pages: 1 -->
<svg width="1882pt" height="284pt"
 viewBox="0.00 0.00 1882.00 284.00" xmlns="http://www.w3.org/2000/svg" xmlns:xlink="http://www.w3.org/1999/xlink">
<g id="graph0" class="graph" transform="scale(1 1) rotate(0) translate(4 280)">
<title>dependencies</title>
<polygon fill="#ffffff" stroke="transparent" points="-4,4 -4,-280 1878,-280 1878,4 -4,4"/>
<text text-anchor="start" x="916.0091" y="-42.4" font-family="sans-serif" font-weight="bold" font-size="14.00" fill="#000000">Legend</text>
<polygon fill="#ffffb3" stroke="transparent" points="703,-10 703,-30 723,-30 723,-10 703,-10"/>
<text text-anchor="start" x="726.629" y="-15.4" font-family="sans-serif" font-size="14.00" fill="#000000"> &#160;Declarations</text>
<polygon fill="#8dd3c7" stroke="transparent" points="816,-10 816,-30 836,-30 836,-10 816,-10"/>
<text text-anchor="start" x="839.7251" y="-15.4" font-family="sans-serif" font-size="14.00" fill="#000000"> &#160;Module</text>
<polygon fill="#80b1d3" stroke="transparent" points="902,-10 902,-30 922,-30 922,-10 902,-10"/>
<text text-anchor="start" x="925.7812" y="-15.4" font-family="sans-serif" font-size="14.00" fill="#000000"> &#160;Bootstrap</text>
<polygon fill="#fdb462" stroke="transparent" points="999,-10 999,-30 1019,-30 1019,-10 999,-10"/>
<text text-anchor="start" x="1022.6732" y="-15.4" font-family="sans-serif" font-size="14.00" fill="#000000"> &#160;Providers</text>
<polygon fill="#fb8072" stroke="transparent" points="1095,-10 1095,-30 1115,-30 1115,-10 1095,-10"/>
<text text-anchor="start" x="1118.7258" y="-15.4" font-family="sans-serif" font-size="14.00" fill="#000000"> &#160;Exports</text>
<g id="clust1" class="cluster">
<title>cluster_SharedModule</title>
<polygon fill="none" stroke="#000000" stroke-dasharray="1,5" points="8,-70 8,-268 1866,-268 1866,-70 8,-70"/>
</g>
<g id="clust2" class="cluster">
<title>cluster_SharedModule_declarations</title>
<polygon fill="none" stroke="#000000" points="734,-78 734,-130 1858,-130 1858,-78 734,-78"/>
</g>
<g id="clust10" class="cluster">
<title>cluster_SharedModule_imports</title>
<polygon fill="none" stroke="#000000" points="357,-78 357,-130 726,-130 726,-78 357,-78"/>
</g>
<g id="clust11" class="cluster">
<title>cluster_SharedModule_exports</title>
<polygon fill="none" stroke="#000000" points="393,-208 393,-260 1349,-260 1349,-208 393,-208"/>
</g>
<g id="clust13" class="cluster">
<title>cluster_SharedModule_providers</title>
<polygon fill="none" stroke="#000000" points="16,-78 16,-130 349,-130 349,-78 16,-78"/>
</g>
<!-- AuthorFormComponent -->
<g id="node1" class="node">
<title>AuthorFormComponent</title>
<polygon fill="#ffffb3" stroke="#000000" points="1849.8243,-122 1698.1757,-122 1698.1757,-86 1849.8243,-86 1849.8243,-122"/>
<text text-anchor="middle" x="1774" y="-99.8" font-family="Times,serif" font-size="14.00" fill="#000000">AuthorFormComponent</text>
</g>
<!-- SharedModule -->
<g id="node8" class="node">
<title>SharedModule</title>
<polygon fill="#8dd3c7" stroke="#000000" points="920.4231,-187 917.4231,-191 896.4231,-191 893.4231,-187 821.5769,-187 821.5769,-151 920.4231,-151 920.4231,-187"/>
<text text-anchor="middle" x="871" y="-164.8" font-family="Times,serif" font-size="14.00" fill="#000000">SharedModule</text>
</g>
<!-- AuthorFormComponent&#45;&gt;SharedModule -->
<g id="edge1" class="edge">
<title>AuthorFormComponent&#45;&gt;SharedModule</title>
<path fill="none" stroke="#000000" d="M1774,-122.0267C1774,-142.7672 1774,-174 1774,-174 1774,-174 930.5125,-174 930.5125,-174"/>
<polygon fill="#000000" stroke="#000000" points="930.5125,-170.5001 920.5125,-174 930.5125,-177.5001 930.5125,-170.5001"/>
</g>
<!-- BookFormComponent -->
<g id="node2" class="node">
<title>BookFormComponent</title>
<polygon fill="#ffffb3" stroke="#000000" points="1680.0028,-122 1537.9972,-122 1537.9972,-86 1680.0028,-86 1680.0028,-122"/>
<text text-anchor="middle" x="1609" y="-99.8" font-family="Times,serif" font-size="14.00" fill="#000000">BookFormComponent</text>
</g>
<!-- BookFormComponent&#45;&gt;SharedModule -->
<g id="edge2" class="edge">
<title>BookFormComponent&#45;&gt;SharedModule</title>
<path fill="none" stroke="#000000" d="M1609,-122.1061C1609,-141.3391 1609,-169 1609,-169 1609,-169 930.2806,-169 930.2806,-169"/>
<polygon fill="#000000" stroke="#000000" points="930.2807,-165.5001 920.2806,-169 930.2806,-172.5001 930.2807,-165.5001"/>
</g>
<!-- GenreFormComponent -->
<g id="node3" class="node">
<title>GenreFormComponent</title>
<polygon fill="#ffffb3" stroke="#000000" points="1519.8627,-122 1374.1373,-122 1374.1373,-86 1519.8627,-86 1519.8627,-122"/>
<text text-anchor="middle" x="1447" y="-99.8" font-family="Times,serif" font-size="14.00" fill="#000000">GenreFormComponent</text>
</g>
<!-- GenreFormComponent&#45;&gt;SharedModule -->
<g id="edge3" class="edge">
<title>GenreFormComponent&#45;&gt;SharedModule</title>
<path fill="none" stroke="#000000" d="M1447,-122.302C1447,-140.2699 1447,-165 1447,-165 1447,-165 930.3584,-165 930.3584,-165"/>
<polygon fill="#000000" stroke="#000000" points="930.3585,-161.5001 920.3584,-165 930.3584,-168.5001 930.3585,-161.5001"/>
</g>
<!-- PageNotFoundComponent -->
<g id="node4" class="node">
<title>PageNotFoundComponent</title>
<polygon fill="#ffffb3" stroke="#000000" points="1355.8243,-122 1190.1757,-122 1190.1757,-86 1355.8243,-86 1355.8243,-122"/>
<text text-anchor="middle" x="1273" y="-99.8" font-family="Times,serif" font-size="14.00" fill="#000000">PageNotFoundComponent</text>
</g>
<!-- PageNotFoundComponent&#45;&gt;SharedModule -->
<g id="edge4" class="edge">
<title>PageNotFoundComponent&#45;&gt;SharedModule</title>
<path fill="none" stroke="#000000" d="M1240.696,-122.027C1240.696,-138.3976 1240.696,-160 1240.696,-160 1240.696,-160 930.4752,-160 930.4752,-160"/>
<polygon fill="#000000" stroke="#000000" points="930.4753,-156.5001 920.4752,-160 930.4752,-163.5001 930.4753,-156.5001"/>
</g>
<!-- PublishersFormComponent -->
<g id="node5" class="node">
<title>PublishersFormComponent</title>
<polygon fill="#ffffb3" stroke="#000000" points="1171.9944,-122 1002.0056,-122 1002.0056,-86 1171.9944,-86 1171.9944,-122"/>
<text text-anchor="middle" x="1087" y="-99.8" font-family="Times,serif" font-size="14.00" fill="#000000">PublishersFormComponent</text>
</g>
<!-- PublishersFormComponent&#45;&gt;SharedModule -->
<g id="edge5" class="edge">
<title>PublishersFormComponent&#45;&gt;SharedModule</title>
<path fill="none" stroke="#000000" d="M1014.4962,-122.1871C1014.4962,-137.1824 1014.4962,-156 1014.4962,-156 1014.4962,-156 930.3832,-156 930.3832,-156"/>
<polygon fill="#000000" stroke="#000000" points="930.3833,-152.5001 920.3832,-156 930.3832,-159.5001 930.3833,-152.5001"/>
</g>
<!-- TrimDirective -->
<g id="node6" class="node">
<title>TrimDirective</title>
<polygon fill="#ffffb3" stroke="#000000" points="984.0772,-122 887.9228,-122 887.9228,-86 984.0772,-86 984.0772,-122"/>
<text text-anchor="middle" x="936" y="-99.8" font-family="Times,serif" font-size="14.00" fill="#000000">TrimDirective</text>
</g>
<!-- TrimDirective&#45;&gt;SharedModule -->
<g id="edge6" class="edge">
<title>TrimDirective&#45;&gt;SharedModule</title>
<path fill="none" stroke="#000000" d="M904.0863,-122.1061C904.0863,-122.1061 904.0863,-140.991 904.0863,-140.991"/>
<polygon fill="#000000" stroke="#000000" points="900.5863,-140.9909 904.0863,-150.991 907.5863,-140.991 900.5863,-140.9909"/>
</g>
<!-- UpperFirstDirective -->
<g id="node7" class="node">
<title>UpperFirstDirective</title>
<polygon fill="#ffffb3" stroke="#000000" points="870.2339,-122 741.7661,-122 741.7661,-86 870.2339,-86 870.2339,-122"/>
<text text-anchor="middle" x="806" y="-99.8" font-family="Times,serif" font-size="14.00" fill="#000000">UpperFirstDirective</text>
</g>
<!-- UpperFirstDirective&#45;&gt;SharedModule -->
<g id="edge7" class="edge">
<title>UpperFirstDirective&#45;&gt;SharedModule</title>
<path fill="none" stroke="#000000" d="M846.0779,-122.1061C846.0779,-122.1061 846.0779,-140.991 846.0779,-140.991"/>
<polygon fill="#000000" stroke="#000000" points="842.5779,-140.9909 846.0779,-150.991 849.5779,-140.991 842.5779,-140.9909"/>
</g>
<!-- AuthorFormComponent  -->
<g id="node12" class="node">
<title>AuthorFormComponent </title>
<polygon fill="#fb8072" stroke="#000000" points="1341.3241,-252 1186.6759,-252 1186.6759,-216 1341.3241,-216 1341.3241,-252"/>
<text text-anchor="middle" x="1264" y="-229.8" font-family="Times,serif" font-size="14.00" fill="#000000">AuthorFormComponent </text>
</g>
<!-- SharedModule&#45;&gt;AuthorFormComponent  -->
<g id="edge11" class="edge">
<title>SharedModule&#45;&gt;AuthorFormComponent </title>
<path fill="none" stroke="#000000" stroke-dasharray="5,2" d="M920.4207,-178C1031.4586,-178 1291.054,-178 1291.054,-178 1291.054,-178 1291.054,-205.973 1291.054,-205.973"/>
<polygon fill="#000000" stroke="#000000" points="1287.5541,-205.973 1291.054,-215.973 1294.5541,-205.973 1287.5541,-205.973"/>
</g>
<!-- BookFormComponent  -->
<g id="node13" class="node">
<title>BookFormComponent </title>
<polygon fill="#fb8072" stroke="#000000" points="1168.5036,-252 1023.4964,-252 1023.4964,-216 1168.5036,-216 1168.5036,-252"/>
<text text-anchor="middle" x="1096" y="-229.8" font-family="Times,serif" font-size="14.00" fill="#000000">BookFormComponent </text>
</g>
<!-- SharedModule&#45;&gt;BookFormComponent  -->
<g id="edge12" class="edge">
<title>SharedModule&#45;&gt;BookFormComponent </title>
<path fill="none" stroke="#000000" stroke-dasharray="5,2" d="M920.3772,-183C986.6096,-183 1096,-183 1096,-183 1096,-183 1096,-205.8757 1096,-205.8757"/>
<polygon fill="#000000" stroke="#000000" points="1092.5001,-205.8757 1096,-215.8757 1099.5001,-205.8757 1092.5001,-205.8757"/>
</g>
<!-- BootstrapModule  -->
<g id="node14" class="node">
<title>BootstrapModule </title>
<polygon fill="#fb8072" stroke="#000000" points="1005.9884,-252 888.0116,-252 888.0116,-216 1005.9884,-216 1005.9884,-252"/>
<text text-anchor="middle" x="947" y="-229.8" font-family="Times,serif" font-size="14.00" fill="#000000">BootstrapModule </text>
</g>
<!-- SharedModule&#45;&gt;BootstrapModule  -->
<g id="edge13" class="edge">
<title>SharedModule&#45;&gt;BootstrapModule </title>
<path fill="none" stroke="#000000" stroke-dasharray="5,2" d="M904.2337,-187.1061C904.2337,-187.1061 904.2337,-205.991 904.2337,-205.991"/>
<polygon fill="#000000" stroke="#000000" points="900.7338,-205.9909 904.2337,-215.991 907.7338,-205.991 900.7338,-205.9909"/>
</g>
<!-- GenreFormComponent  -->
<g id="node15" class="node">
<title>GenreFormComponent </title>
<polygon fill="#fb8072" stroke="#000000" points="870.863,-252 721.137,-252 721.137,-216 870.863,-216 870.863,-252"/>
<text text-anchor="middle" x="796" y="-229.8" font-family="Times,serif" font-size="14.00" fill="#000000">GenreFormComponent </text>
</g>
<!-- SharedModule&#45;&gt;GenreFormComponent  -->
<g id="edge14" class="edge">
<title>SharedModule&#45;&gt;GenreFormComponent </title>
<path fill="none" stroke="#000000" stroke-dasharray="5,2" d="M846.2351,-187.1061C846.2351,-187.1061 846.2351,-205.991 846.2351,-205.991"/>
<polygon fill="#000000" stroke="#000000" points="842.7352,-205.9909 846.2351,-215.991 849.7352,-205.991 842.7352,-205.9909"/>
</g>
<!-- MaterialModule  -->
<g id="node16" class="node">
<title>MaterialModule </title>
<polygon fill="#fb8072" stroke="#000000" points="703.4716,-252 592.5284,-252 592.5284,-216 703.4716,-216 703.4716,-252"/>
<text text-anchor="middle" x="648" y="-229.8" font-family="Times,serif" font-size="14.00" fill="#000000">MaterialModule </text>
</g>
<!-- SharedModule&#45;&gt;MaterialModule  -->
<g id="edge15" class="edge">
<title>SharedModule&#45;&gt;MaterialModule </title>
<path fill="none" stroke="#000000" stroke-dasharray="5,2" d="M821.6733,-183C757.5373,-183 653.6208,-183 653.6208,-183 653.6208,-183 653.6208,-205.8757 653.6208,-205.8757"/>
<polygon fill="#000000" stroke="#000000" points="650.1209,-205.8757 653.6208,-215.8757 657.1209,-205.8757 650.1209,-205.8757"/>
</g>
<!-- PublishersFormComponent  -->
<g id="node17" class="node">
<title>PublishersFormComponent </title>
<polygon fill="#fb8072" stroke="#000000" points="574.9951,-252 401.0049,-252 401.0049,-216 574.9951,-216 574.9951,-252"/>
<text text-anchor="middle" x="488" y="-229.8" font-family="Times,serif" font-size="14.00" fill="#000000">PublishersFormComponent </text>
</g>
<!-- SharedModule&#45;&gt;PublishersFormComponent  -->
<g id="edge16" class="edge">
<title>SharedModule&#45;&gt;PublishersFormComponent </title>
<path fill="none" stroke="#000000" stroke-dasharray="5,2" d="M821.7319,-178C726.6491,-178 527.131,-178 527.131,-178 527.131,-178 527.131,-205.973 527.131,-205.973"/>
<polygon fill="#000000" stroke="#000000" points="523.631,-205.973 527.131,-215.973 530.631,-205.973 523.631,-205.973"/>
</g>
<!-- BootstrapModule -->
<g id="node9" class="node">
<title>BootstrapModule</title>
<polygon fill="#8dd3c7" stroke="#000000" points="717.9874,-122 714.9874,-126 693.9874,-126 690.9874,-122 604.0126,-122 604.0126,-86 717.9874,-86 717.9874,-122"/>
<text text-anchor="middle" x="661" y="-99.8" font-family="Times,serif" font-size="14.00" fill="#000000">BootstrapModule</text>
</g>
<!-- BootstrapModule&#45;&gt;SharedModule -->
<g id="edge8" class="edge">
<title>BootstrapModule&#45;&gt;SharedModule</title>
<path fill="none" stroke="#000000" d="M710.6145,-122.1871C710.6145,-137.1824 710.6145,-156 710.6145,-156 710.6145,-156 811.5704,-156 811.5704,-156"/>
<polygon fill="#000000" stroke="#000000" points="811.5704,-159.5001 821.5704,-156 811.5703,-152.5001 811.5704,-159.5001"/>
</g>
<!-- MaterialModule -->
<g id="node10" class="node">
<title>MaterialModule</title>
<polygon fill="#8dd3c7" stroke="#000000" points="586.4706,-122 583.4706,-126 562.4706,-126 559.4706,-122 479.5294,-122 479.5294,-86 586.4706,-86 586.4706,-122"/>
<text text-anchor="middle" x="533" y="-99.8" font-family="Times,serif" font-size="14.00" fill="#000000">MaterialModule</text>
</g>
<!-- MaterialModule&#45;&gt;SharedModule -->
<g id="edge9" class="edge">
<title>MaterialModule&#45;&gt;SharedModule</title>
<path fill="none" stroke="#000000" d="M580.6163,-122.027C580.6163,-138.3976 580.6163,-160 580.6163,-160 580.6163,-160 811.7404,-160 811.7404,-160"/>
<polygon fill="#000000" stroke="#000000" points="811.7404,-163.5001 821.7404,-160 811.7403,-156.5001 811.7404,-163.5001"/>
</g>
<!-- ModalModule -->
<g id="node11" class="node">
<title>ModalModule</title>
<polygon fill="#8dd3c7" stroke="#000000" points="461.0997,-122 458.0997,-126 437.0997,-126 434.0997,-122 364.9003,-122 364.9003,-86 461.0997,-86 461.0997,-122"/>
<text text-anchor="middle" x="413" y="-99.8" font-family="Times,serif" font-size="14.00" fill="#000000">ModalModule</text>
</g>
<!-- ModalModule&#45;&gt;SharedModule -->
<g id="edge10" class="edge">
<title>ModalModule&#45;&gt;SharedModule</title>
<path fill="none" stroke="#000000" d="M431.1513,-122.302C431.1513,-140.2699 431.1513,-165 431.1513,-165 431.1513,-165 811.3988,-165 811.3988,-165"/>
<polygon fill="#000000" stroke="#000000" points="811.3988,-168.5001 821.3988,-165 811.3987,-161.5001 811.3988,-168.5001"/>
</g>
<!-- ErrorMsgService -->
<g id="node18" class="node">
<title>ErrorMsgService</title>
<ellipse fill="#fdb462" stroke="#000000" cx="263" cy="-104" rx="77.5646" ry="18"/>
<text text-anchor="middle" x="263" y="-99.8" font-family="Times,serif" font-size="14.00" fill="#000000">ErrorMsgService</text>
</g>
<!-- ErrorMsgService&#45;&gt;SharedModule -->
<g id="edge17" class="edge">
<title>ErrorMsgService&#45;&gt;SharedModule</title>
<path fill="none" stroke="#000000" d="M263,-122.1061C263,-141.3391 263,-169 263,-169 263,-169 811.7598,-169 811.7598,-169"/>
<polygon fill="#000000" stroke="#000000" points="811.7599,-172.5001 821.7598,-169 811.7598,-165.5001 811.7599,-172.5001"/>
</g>
<!-- RestApiService -->
<g id="node19" class="node">
<title>RestApiService</title>
<ellipse fill="#fdb462" stroke="#000000" cx="96" cy="-104" rx="71.7834" ry="18"/>
<text text-anchor="middle" x="96" y="-99.8" font-family="Times,serif" font-size="14.00" fill="#000000">RestApiService</text>
</g>
<!-- RestApiService&#45;&gt;SharedModule -->
<g id="edge18" class="edge">
<title>RestApiService&#45;&gt;SharedModule</title>
<path fill="none" stroke="#000000" d="M96,-122.0267C96,-142.7672 96,-174 96,-174 96,-174 811.6372,-174 811.6372,-174"/>
<polygon fill="#000000" stroke="#000000" points="811.6372,-177.5001 821.6372,-174 811.6372,-170.5001 811.6372,-177.5001"/>
</g>
</g>
</svg>
