<?xml version="1.0" encoding="UTF-8" standalone="no"?>
<!DOCTYPE svg PUBLIC "-//W3C//DTD SVG 1.1//EN"
 "http://www.w3.org/Graphics/SVG/1.1/DTD/svg11.dtd">
<!-- Generated by graphviz version 2.40.1 (20161225.0304)
 -->
<!-- Title: dependencies Pages: 1 -->
<svg width="819pt" height="284pt"
 viewBox="0.00 0.00 819.00 284.00" xmlns="http://www.w3.org/2000/svg" xmlns:xlink="http://www.w3.org/1999/xlink">
<g id="graph0" class="graph" transform="scale(1 1) rotate(0) translate(4 280)">
<title>dependencies</title>
<polygon fill="#ffffff" stroke="transparent" points="-4,4 -4,-280 815,-280 815,4 -4,4"/>
<text text-anchor="start" x="384.5091" y="-42.4" font-family="sans-serif" font-weight="bold" font-size="14.00" fill="#000000">Legend</text>
<polygon fill="#ffffb3" stroke="transparent" points="171.5,-10 171.5,-30 191.5,-30 191.5,-10 171.5,-10"/>
<text text-anchor="start" x="195.129" y="-15.4" font-family="sans-serif" font-size="14.00" fill="#000000"> &#160;Declarations</text>
<polygon fill="#8dd3c7" stroke="transparent" points="284.5,-10 284.5,-30 304.5,-30 304.5,-10 284.5,-10"/>
<text text-anchor="start" x="308.2251" y="-15.4" font-family="sans-serif" font-size="14.00" fill="#000000"> &#160;Module</text>
<polygon fill="#80b1d3" stroke="transparent" points="370.5,-10 370.5,-30 390.5,-30 390.5,-10 370.5,-10"/>
<text text-anchor="start" x="394.2812" y="-15.4" font-family="sans-serif" font-size="14.00" fill="#000000"> &#160;Bootstrap</text>
<polygon fill="#fdb462" stroke="transparent" points="467.5,-10 467.5,-30 487.5,-30 487.5,-10 467.5,-10"/>
<text text-anchor="start" x="491.1732" y="-15.4" font-family="sans-serif" font-size="14.00" fill="#000000"> &#160;Providers</text>
<polygon fill="#fb8072" stroke="transparent" points="563.5,-10 563.5,-30 583.5,-30 583.5,-10 563.5,-10"/>
<text text-anchor="start" x="587.2258" y="-15.4" font-family="sans-serif" font-size="14.00" fill="#000000"> &#160;Exports</text>
<g id="clust1" class="cluster">
<title>cluster_AppModule</title>
<polygon fill="none" stroke="#000000" stroke-dasharray="1,5" points="8,-70 8,-268 803,-268 803,-70 8,-70"/>
</g>
<g id="clust2" class="cluster">
<title>cluster_AppModule_declarations</title>
<polygon fill="none" stroke="#000000" points="375,-78 375,-130 795,-130 795,-78 375,-78"/>
</g>
<g id="clust6" class="cluster">
<title>cluster_AppModule_imports</title>
<polygon fill="none" stroke="#000000" points="16,-78 16,-130 367,-130 367,-78 16,-78"/>
</g>
<g id="clust8" class="cluster">
<title>cluster_AppModule_bootstrap</title>
<polygon fill="none" stroke="#000000" points="321,-208 321,-260 445,-260 445,-208 321,-208"/>
</g>
<!-- AppComponent -->
<g id="node1" class="node">
<title>AppComponent</title>
<polygon fill="#ffffb3" stroke="#000000" points="786.9399,-122 681.0601,-122 681.0601,-86 786.9399,-86 786.9399,-122"/>
<text text-anchor="middle" x="734" y="-99.8" font-family="Times,serif" font-size="14.00" fill="#000000">AppComponent</text>
</g>
<!-- AppModule -->
<g id="node4" class="node">
<title>AppModule</title>
<polygon fill="#8dd3c7" stroke="#000000" points="424.6571,-187 421.6571,-191 400.6571,-191 397.6571,-187 341.3429,-187 341.3429,-151 424.6571,-151 424.6571,-187"/>
<text text-anchor="middle" x="383" y="-164.8" font-family="Times,serif" font-size="14.00" fill="#000000">AppModule</text>
</g>
<!-- AppComponent&#45;&gt;AppModule -->
<g id="edge1" class="edge">
<title>AppComponent&#45;&gt;AppModule</title>
<path fill="none" stroke="#000000" d="M734,-122.2843C734,-143.3211 734,-175 734,-175 734,-175 434.9902,-175 434.9902,-175"/>
<polygon fill="#000000" stroke="#000000" points="434.9902,-171.5001 424.9902,-175 434.9901,-178.5001 434.9902,-171.5001"/>
</g>
<!-- ModalComponent -->
<g id="node2" class="node">
<title>ModalComponent</title>
<polygon fill="#ffffb3" stroke="#000000" points="662.8823,-122 545.1177,-122 545.1177,-86 662.8823,-86 662.8823,-122"/>
<text text-anchor="middle" x="604" y="-99.8" font-family="Times,serif" font-size="14.00" fill="#000000">ModalComponent</text>
</g>
<!-- ModalComponent&#45;&gt;AppModule -->
<g id="edge2" class="edge">
<title>ModalComponent&#45;&gt;AppModule</title>
<path fill="none" stroke="#000000" d="M604,-122.0225C604,-139.3734 604,-163 604,-163 604,-163 434.8282,-163 434.8282,-163"/>
<polygon fill="#000000" stroke="#000000" points="434.8283,-159.5001 424.8282,-163 434.8282,-166.5001 434.8283,-159.5001"/>
</g>
<!-- NavigationComponent -->
<g id="node3" class="node">
<title>NavigationComponent</title>
<polygon fill="#ffffb3" stroke="#000000" points="526.5407,-122 383.4593,-122 383.4593,-86 526.5407,-86 526.5407,-122"/>
<text text-anchor="middle" x="455" y="-99.8" font-family="Times,serif" font-size="14.00" fill="#000000">NavigationComponent</text>
</g>
<!-- NavigationComponent&#45;&gt;AppModule -->
<g id="edge3" class="edge">
<title>NavigationComponent&#45;&gt;AppModule</title>
<path fill="none" stroke="#000000" d="M404.0291,-122.1061C404.0291,-122.1061 404.0291,-140.991 404.0291,-140.991"/>
<polygon fill="#000000" stroke="#000000" points="400.5292,-140.9909 404.0291,-150.991 407.5292,-140.991 400.5292,-140.9909"/>
</g>
<!-- AppComponent  -->
<g id="node8" class="node">
<title>AppComponent </title>
<polygon fill="#80b1d3" stroke="#000000" points="437.439,-252 328.561,-252 328.561,-216 437.439,-216 437.439,-252"/>
<text text-anchor="middle" x="383" y="-229.8" font-family="Times,serif" font-size="14.00" fill="#000000">AppComponent </text>
</g>
<!-- AppModule&#45;&gt;AppComponent  -->
<g id="edge7" class="edge">
<title>AppModule&#45;&gt;AppComponent </title>
<path fill="none" stroke="#000000" stroke-dasharray="1,5" d="M383,-187.1061C383,-187.1061 383,-205.991 383,-205.991"/>
<polygon fill="#000000" stroke="#000000" points="379.5001,-205.9909 383,-215.991 386.5001,-205.991 379.5001,-205.9909"/>
</g>
<!-- ModalModule -->
<g id="node5" class="node">
<title>ModalModule</title>
<polygon fill="#8dd3c7" stroke="#000000" points="359.0997,-122 356.0997,-126 335.0997,-126 332.0997,-122 262.9003,-122 262.9003,-86 359.0997,-86 359.0997,-122"/>
<text text-anchor="middle" x="311" y="-99.8" font-family="Times,serif" font-size="14.00" fill="#000000">ModalModule</text>
</g>
<!-- ModalModule&#45;&gt;AppModule -->
<g id="edge4" class="edge">
<title>ModalModule&#45;&gt;AppModule</title>
<path fill="none" stroke="#000000" d="M350.1108,-122.1061C350.1108,-122.1061 350.1108,-140.991 350.1108,-140.991"/>
<polygon fill="#000000" stroke="#000000" points="346.6109,-140.9909 350.1108,-150.991 353.6109,-140.991 346.6109,-140.9909"/>
</g>
<!-- RoutingModule -->
<g id="node6" class="node">
<title>RoutingModule</title>
<polygon fill="#8dd3c7" stroke="#000000" points="245.1681,-122 242.1681,-126 221.1681,-126 218.1681,-122 140.8319,-122 140.8319,-86 245.1681,-86 245.1681,-122"/>
<text text-anchor="middle" x="193" y="-99.8" font-family="Times,serif" font-size="14.00" fill="#000000">RoutingModule</text>
</g>
<!-- RoutingModule&#45;&gt;AppModule -->
<g id="edge5" class="edge">
<title>RoutingModule&#45;&gt;AppModule</title>
<path fill="none" stroke="#000000" d="M193,-122.0225C193,-139.3734 193,-163 193,-163 193,-163 331.3037,-163 331.3037,-163"/>
<polygon fill="#000000" stroke="#000000" points="331.3037,-166.5001 341.3037,-163 331.3037,-159.5001 331.3037,-166.5001"/>
</g>
<!-- SharedModule -->
<g id="node7" class="node">
<title>SharedModule</title>
<polygon fill="#8dd3c7" stroke="#000000" points="122.4231,-122 119.4231,-126 98.4231,-126 95.4231,-122 23.5769,-122 23.5769,-86 122.4231,-86 122.4231,-122"/>
<text text-anchor="middle" x="73" y="-99.8" font-family="Times,serif" font-size="14.00" fill="#000000">SharedModule</text>
</g>
<!-- SharedModule&#45;&gt;AppModule -->
<g id="edge6" class="edge">
<title>SharedModule&#45;&gt;AppModule</title>
<path fill="none" stroke="#000000" d="M73,-122.2843C73,-143.3211 73,-175 73,-175 73,-175 331.192,-175 331.192,-175"/>
<polygon fill="#000000" stroke="#000000" points="331.1921,-178.5001 341.192,-175 331.192,-171.5001 331.1921,-178.5001"/>
</g>
</g>
</svg>
