<?xml version="1.0" encoding="UTF-8" standalone="no"?>
<!DOCTYPE svg PUBLIC "-//W3C//DTD SVG 1.1//EN"
 "http://www.w3.org/Graphics/SVG/1.1/DTD/svg11.dtd">
<!-- Generated by graphviz version 2.40.1 (20161225.0304)
 -->
<!-- Title: dependencies Pages: 1 -->
<svg width="504pt" height="211pt"
 viewBox="0.00 0.00 504.00 211.00" xmlns="http://www.w3.org/2000/svg" xmlns:xlink="http://www.w3.org/1999/xlink">
<g id="graph0" class="graph" transform="scale(1 1) rotate(0) translate(4 207)">
<title>dependencies</title>
<polygon fill="#ffffff" stroke="transparent" points="-4,4 -4,-207 500,-207 500,4 -4,4"/>
<text text-anchor="start" x="227.0091" y="-42.4" font-family="sans-serif" font-weight="bold" font-size="14.00" fill="#000000">Legend</text>
<polygon fill="#ffffb3" stroke="transparent" points="14,-10 14,-30 34,-30 34,-10 14,-10"/>
<text text-anchor="start" x="37.629" y="-15.4" font-family="sans-serif" font-size="14.00" fill="#000000"> &#160;Declarations</text>
<polygon fill="#8dd3c7" stroke="transparent" points="127,-10 127,-30 147,-30 147,-10 127,-10"/>
<text text-anchor="start" x="150.7251" y="-15.4" font-family="sans-serif" font-size="14.00" fill="#000000"> &#160;Module</text>
<polygon fill="#80b1d3" stroke="transparent" points="213,-10 213,-30 233,-30 233,-10 213,-10"/>
<text text-anchor="start" x="236.7812" y="-15.4" font-family="sans-serif" font-size="14.00" fill="#000000"> &#160;Bootstrap</text>
<polygon fill="#fdb462" stroke="transparent" points="310,-10 310,-30 330,-30 330,-10 310,-10"/>
<text text-anchor="start" x="333.6732" y="-15.4" font-family="sans-serif" font-size="14.00" fill="#000000"> &#160;Providers</text>
<polygon fill="#fb8072" stroke="transparent" points="406,-10 406,-30 426,-30 426,-10 406,-10"/>
<text text-anchor="start" x="429.7258" y="-15.4" font-family="sans-serif" font-size="14.00" fill="#000000"> &#160;Exports</text>
<g id="clust1" class="cluster">
<title>cluster_BooksPageModule</title>
<polygon fill="none" stroke="#000000" stroke-dasharray="1,5" points="22,-70 22,-195 474,-195 474,-70 22,-70"/>
</g>
<g id="clust2" class="cluster">
<title>cluster_BooksPageModule_declarations</title>
<polygon fill="none" stroke="#000000" points="306,-78 306,-130 466,-130 466,-78 306,-78"/>
</g>
<g id="clust4" class="cluster">
<title>cluster_BooksPageModule_imports</title>
<polygon fill="none" stroke="#000000" points="184,-78 184,-130 298,-130 298,-78 184,-78"/>
</g>
<g id="clust7" class="cluster">
<title>cluster_BooksPageModule_providers</title>
<polygon fill="none" stroke="#000000" points="30,-78 30,-130 176,-130 176,-78 30,-78"/>
</g>
<!-- BooksPageComponent -->
<g id="node1" class="node">
<title>BooksPageComponent</title>
<polygon fill="#ffffb3" stroke="#000000" points="458.3258,-122 313.6742,-122 313.6742,-86 458.3258,-86 458.3258,-122"/>
<text text-anchor="middle" x="386" y="-99.8" font-family="Times,serif" font-size="14.00" fill="#000000">BooksPageComponent</text>
</g>
<!-- BooksPageModule -->
<g id="node2" class="node">
<title>BooksPageModule</title>
<polygon fill="#8dd3c7" stroke="#000000" points="302.0436,-187 299.0436,-191 278.0436,-191 275.0436,-187 179.9564,-187 179.9564,-151 302.0436,-151 302.0436,-187"/>
<text text-anchor="middle" x="241" y="-164.8" font-family="Times,serif" font-size="14.00" fill="#000000">BooksPageModule</text>
</g>
<!-- BooksPageComponent&#45;&gt;BooksPageModule -->
<g id="edge1" class="edge">
<title>BooksPageComponent&#45;&gt;BooksPageModule</title>
<path fill="none" stroke="#000000" d="M313.5476,-104C303.3413,-104 296.2413,-104 296.2413,-104 296.2413,-104 296.2413,-140.8939 296.2413,-140.8939"/>
<polygon fill="#000000" stroke="#000000" points="292.7413,-140.8938 296.2413,-150.8939 299.7413,-140.8939 292.7413,-140.8938"/>
</g>
<!-- SharedModule -->
<g id="node3" class="node">
<title>SharedModule</title>
<polygon fill="#8dd3c7" stroke="#000000" points="290.4231,-122 287.4231,-126 266.4231,-126 263.4231,-122 191.5769,-122 191.5769,-86 290.4231,-86 290.4231,-122"/>
<text text-anchor="middle" x="241" y="-99.8" font-family="Times,serif" font-size="14.00" fill="#000000">SharedModule</text>
</g>
<!-- SharedModule&#45;&gt;BooksPageModule -->
<g id="edge2" class="edge">
<title>SharedModule&#45;&gt;BooksPageModule</title>
<path fill="none" stroke="#000000" d="M241,-122.1061C241,-122.1061 241,-140.991 241,-140.991"/>
<polygon fill="#000000" stroke="#000000" points="237.5001,-140.9909 241,-150.991 244.5001,-140.991 237.5001,-140.9909"/>
</g>
<!-- BooksService -->
<g id="node4" class="node">
<title>BooksService</title>
<ellipse fill="#fdb462" stroke="#000000" cx="103" cy="-104" rx="64.8467" ry="18"/>
<text text-anchor="middle" x="103" y="-99.8" font-family="Times,serif" font-size="14.00" fill="#000000">BooksService</text>
</g>
<!-- BooksService&#45;&gt;BooksPageModule -->
<g id="edge3" class="edge">
<title>BooksService&#45;&gt;BooksPageModule</title>
<path fill="none" stroke="#000000" d="M167.8013,-104C178.2716,-104 185.7588,-104 185.7588,-104 185.7588,-104 185.7588,-140.8939 185.7588,-140.8939"/>
<polygon fill="#000000" stroke="#000000" points="182.2588,-140.8938 185.7588,-150.8939 189.2588,-140.8939 182.2588,-140.8938"/>
</g>
</g>
</svg>
