<?xml version="1.0" encoding="UTF-8" standalone="no"?>
<!DOCTYPE svg PUBLIC "-//W3C//DTD SVG 1.1//EN"
 "http://www.w3.org/Graphics/SVG/1.1/DTD/svg11.dtd">
<!-- Generated by graphviz version 2.40.1 (20161225.0304)
 -->
<!-- Title: dependencies Pages: 1 -->
<svg width="510pt" height="211pt"
 viewBox="0.00 0.00 510.00 211.00" xmlns="http://www.w3.org/2000/svg" xmlns:xlink="http://www.w3.org/1999/xlink">
<g id="graph0" class="graph" transform="scale(1 1) rotate(0) translate(4 207)">
<title>dependencies</title>
<polygon fill="#ffffff" stroke="transparent" points="-4,4 -4,-207 506,-207 506,4 -4,4"/>
<text text-anchor="start" x="230.0091" y="-42.4" font-family="sans-serif" font-weight="bold" font-size="14.00" fill="#000000">Legend</text>
<polygon fill="#ffffb3" stroke="transparent" points="17,-10 17,-30 37,-30 37,-10 17,-10"/>
<text text-anchor="start" x="40.629" y="-15.4" font-family="sans-serif" font-size="14.00" fill="#000000"> &#160;Declarations</text>
<polygon fill="#8dd3c7" stroke="transparent" points="130,-10 130,-30 150,-30 150,-10 130,-10"/>
<text text-anchor="start" x="153.7251" y="-15.4" font-family="sans-serif" font-size="14.00" fill="#000000"> &#160;Module</text>
<polygon fill="#80b1d3" stroke="transparent" points="216,-10 216,-30 236,-30 236,-10 216,-10"/>
<text text-anchor="start" x="239.7812" y="-15.4" font-family="sans-serif" font-size="14.00" fill="#000000"> &#160;Bootstrap</text>
<polygon fill="#fdb462" stroke="transparent" points="313,-10 313,-30 333,-30 333,-10 313,-10"/>
<text text-anchor="start" x="336.6732" y="-15.4" font-family="sans-serif" font-size="14.00" fill="#000000"> &#160;Providers</text>
<polygon fill="#fb8072" stroke="transparent" points="409,-10 409,-30 429,-30 429,-10 409,-10"/>
<text text-anchor="start" x="432.7258" y="-15.4" font-family="sans-serif" font-size="14.00" fill="#000000"> &#160;Exports</text>
<g id="clust1" class="cluster">
<title>cluster_BookDetailsPageModule</title>
<polygon fill="none" stroke="#000000" stroke-dasharray="1,5" points="8,-70 8,-195 494,-195 494,-70 8,-70"/>
</g>
<g id="clust2" class="cluster">
<title>cluster_BookDetailsPageModule_declarations</title>
<polygon fill="none" stroke="#000000" points="292,-78 292,-130 486,-130 486,-78 292,-78"/>
</g>
<g id="clust4" class="cluster">
<title>cluster_BookDetailsPageModule_imports</title>
<polygon fill="none" stroke="#000000" points="170,-78 170,-130 284,-130 284,-78 170,-78"/>
</g>
<g id="clust7" class="cluster">
<title>cluster_BookDetailsPageModule_providers</title>
<polygon fill="none" stroke="#000000" points="16,-78 16,-130 162,-130 162,-78 16,-78"/>
</g>
<!-- BookDetailsPageComponent -->
<g id="node1" class="node">
<title>BookDetailsPageComponent</title>
<polygon fill="#ffffb3" stroke="#000000" points="478.0336,-122 299.9664,-122 299.9664,-86 478.0336,-86 478.0336,-122"/>
<text text-anchor="middle" x="389" y="-99.8" font-family="Times,serif" font-size="14.00" fill="#000000">BookDetailsPageComponent</text>
</g>
<!-- BookDetailsPageModule -->
<g id="node2" class="node">
<title>BookDetailsPageModule</title>
<polygon fill="#8dd3c7" stroke="#000000" points="305.2506,-187 302.2506,-191 281.2506,-191 278.2506,-187 148.7494,-187 148.7494,-151 305.2506,-151 305.2506,-187"/>
<text text-anchor="middle" x="227" y="-164.8" font-family="Times,serif" font-size="14.00" fill="#000000">BookDetailsPageModule</text>
</g>
<!-- BookDetailsPageComponent&#45;&gt;BookDetailsPageModule -->
<g id="edge1" class="edge">
<title>BookDetailsPageComponent&#45;&gt;BookDetailsPageModule</title>
<path fill="none" stroke="#000000" d="M299.9582,-104C292.6355,-104 287.9723,-104 287.9723,-104 287.9723,-104 287.9723,-140.8939 287.9723,-140.8939"/>
<polygon fill="#000000" stroke="#000000" points="284.4724,-140.8938 287.9723,-150.8939 291.4724,-140.8939 284.4724,-140.8938"/>
</g>
<!-- SharedModule -->
<g id="node3" class="node">
<title>SharedModule</title>
<polygon fill="#8dd3c7" stroke="#000000" points="276.4231,-122 273.4231,-126 252.4231,-126 249.4231,-122 177.5769,-122 177.5769,-86 276.4231,-86 276.4231,-122"/>
<text text-anchor="middle" x="227" y="-99.8" font-family="Times,serif" font-size="14.00" fill="#000000">SharedModule</text>
</g>
<!-- SharedModule&#45;&gt;BookDetailsPageModule -->
<g id="edge2" class="edge">
<title>SharedModule&#45;&gt;BookDetailsPageModule</title>
<path fill="none" stroke="#000000" d="M227,-122.1061C227,-122.1061 227,-140.991 227,-140.991"/>
<polygon fill="#000000" stroke="#000000" points="223.5001,-140.9909 227,-150.991 230.5001,-140.991 223.5001,-140.9909"/>
</g>
<!-- BooksService -->
<g id="node4" class="node">
<title>BooksService</title>
<ellipse fill="#fdb462" stroke="#000000" cx="89" cy="-104" rx="64.8467" ry="18"/>
<text text-anchor="middle" x="89" y="-99.8" font-family="Times,serif" font-size="14.00" fill="#000000">BooksService</text>
</g>
<!-- BooksService&#45;&gt;BookDetailsPageModule -->
<g id="edge3" class="edge">
<title>BooksService&#45;&gt;BookDetailsPageModule</title>
<path fill="none" stroke="#000000" d="M153.7418,-104C160.9353,-104 165.731,-104 165.731,-104 165.731,-104 165.731,-140.8939 165.731,-140.8939"/>
<polygon fill="#000000" stroke="#000000" points="162.2311,-140.8938 165.731,-150.8939 169.2311,-140.8939 162.2311,-140.8938"/>
</g>
</g>
</svg>
