<?xml version="1.0" encoding="UTF-8" standalone="no"?>
<!DOCTYPE svg PUBLIC "-//W3C//DTD SVG 1.1//EN"
 "http://www.w3.org/Graphics/SVG/1.1/DTD/svg11.dtd">
<!-- Generated by graphviz version 2.40.1 (20161225.0304)
 -->
<!-- Title: dependencies Pages: 1 -->
<svg width="674pt" height="211pt"
 viewBox="0.00 0.00 674.00 211.00" xmlns="http://www.w3.org/2000/svg" xmlns:xlink="http://www.w3.org/1999/xlink">
<g id="graph0" class="graph" transform="scale(1 1) rotate(0) translate(4 207)">
<title>dependencies</title>
<polygon fill="#ffffff" stroke="transparent" points="-4,4 -4,-207 670,-207 670,4 -4,4"/>
<text text-anchor="start" x="312.0091" y="-42.4" font-family="sans-serif" font-weight="bold" font-size="14.00" fill="#000000">Legend</text>
<polygon fill="#ffffb3" stroke="transparent" points="99,-10 99,-30 119,-30 119,-10 99,-10"/>
<text text-anchor="start" x="122.629" y="-15.4" font-family="sans-serif" font-size="14.00" fill="#000000"> &#160;Declarations</text>
<polygon fill="#8dd3c7" stroke="transparent" points="212,-10 212,-30 232,-30 232,-10 212,-10"/>
<text text-anchor="start" x="235.7251" y="-15.4" font-family="sans-serif" font-size="14.00" fill="#000000"> &#160;Module</text>
<polygon fill="#80b1d3" stroke="transparent" points="298,-10 298,-30 318,-30 318,-10 298,-10"/>
<text text-anchor="start" x="321.7812" y="-15.4" font-family="sans-serif" font-size="14.00" fill="#000000"> &#160;Bootstrap</text>
<polygon fill="#fdb462" stroke="transparent" points="395,-10 395,-30 415,-30 415,-10 395,-10"/>
<text text-anchor="start" x="418.6732" y="-15.4" font-family="sans-serif" font-size="14.00" fill="#000000"> &#160;Providers</text>
<polygon fill="#fb8072" stroke="transparent" points="491,-10 491,-30 511,-30 511,-10 491,-10"/>
<text text-anchor="start" x="514.7258" y="-15.4" font-family="sans-serif" font-size="14.00" fill="#000000"> &#160;Exports</text>
<g id="clust1" class="cluster">
<title>cluster_AuthorsPageModule</title>
<polygon fill="none" stroke="#000000" stroke-dasharray="1,5" points="8,-70 8,-195 658,-195 658,-70 8,-70"/>
</g>
<g id="clust2" class="cluster">
<title>cluster_AuthorsPageModule_declarations</title>
<polygon fill="none" stroke="#000000" points="304,-78 304,-130 650,-130 650,-78 304,-78"/>
</g>
<g id="clust5" class="cluster">
<title>cluster_AuthorsPageModule_imports</title>
<polygon fill="none" stroke="#000000" points="182,-78 182,-130 296,-130 296,-78 182,-78"/>
</g>
<g id="clust8" class="cluster">
<title>cluster_AuthorsPageModule_providers</title>
<polygon fill="none" stroke="#000000" points="16,-78 16,-130 174,-130 174,-78 16,-78"/>
</g>
<!-- AuthorsPageComponent -->
<g id="node1" class="node">
<title>AuthorsPageComponent</title>
<polygon fill="#ffffb3" stroke="#000000" points="641.647,-122 488.353,-122 488.353,-86 641.647,-86 641.647,-122"/>
<text text-anchor="middle" x="565" y="-99.8" font-family="Times,serif" font-size="14.00" fill="#000000">AuthorsPageComponent</text>
</g>
<!-- AuthorsPageModule -->
<g id="node3" class="node">
<title>AuthorsPageModule</title>
<polygon fill="#8dd3c7" stroke="#000000" points="380.8641,-187 377.8641,-191 356.8641,-191 353.8641,-187 249.1359,-187 249.1359,-151 380.8641,-151 380.8641,-187"/>
<text text-anchor="middle" x="315" y="-164.8" font-family="Times,serif" font-size="14.00" fill="#000000">AuthorsPageModule</text>
</g>
<!-- AuthorsPageComponent&#45;&gt;AuthorsPageModule -->
<g id="edge1" class="edge">
<title>AuthorsPageComponent&#45;&gt;AuthorsPageModule</title>
<path fill="none" stroke="#000000" d="M565,-122.1061C565,-141.3391 565,-169 565,-169 565,-169 391.0116,-169 391.0116,-169"/>
<polygon fill="#000000" stroke="#000000" points="391.0116,-165.5001 381.0116,-169 391.0115,-172.5001 391.0116,-165.5001"/>
</g>
<!-- AuthorsTableComponent -->
<g id="node2" class="node">
<title>AuthorsTableComponent</title>
<polygon fill="#ffffb3" stroke="#000000" points="470.3075,-122 311.6925,-122 311.6925,-86 470.3075,-86 470.3075,-122"/>
<text text-anchor="middle" x="391" y="-99.8" font-family="Times,serif" font-size="14.00" fill="#000000">AuthorsTableComponent</text>
</g>
<!-- AuthorsTableComponent&#45;&gt;AuthorsPageModule -->
<g id="edge2" class="edge">
<title>AuthorsTableComponent&#45;&gt;AuthorsPageModule</title>
<path fill="none" stroke="#000000" d="M346.3892,-122.1061C346.3892,-122.1061 346.3892,-140.991 346.3892,-140.991"/>
<polygon fill="#000000" stroke="#000000" points="342.8893,-140.9909 346.3892,-150.991 349.8893,-140.991 342.8893,-140.9909"/>
</g>
<!-- SharedModule -->
<g id="node4" class="node">
<title>SharedModule</title>
<polygon fill="#8dd3c7" stroke="#000000" points="288.4231,-122 285.4231,-126 264.4231,-126 261.4231,-122 189.5769,-122 189.5769,-86 288.4231,-86 288.4231,-122"/>
<text text-anchor="middle" x="239" y="-99.8" font-family="Times,serif" font-size="14.00" fill="#000000">SharedModule</text>
</g>
<!-- SharedModule&#45;&gt;AuthorsPageModule -->
<g id="edge3" class="edge">
<title>SharedModule&#45;&gt;AuthorsPageModule</title>
<path fill="none" stroke="#000000" d="M268.6396,-122.1061C268.6396,-122.1061 268.6396,-140.991 268.6396,-140.991"/>
<polygon fill="#000000" stroke="#000000" points="265.1396,-140.9909 268.6396,-150.991 272.1396,-140.991 265.1396,-140.9909"/>
</g>
<!-- AuthorsService -->
<g id="node5" class="node">
<title>AuthorsService</title>
<ellipse fill="#fdb462" stroke="#000000" cx="95" cy="-104" rx="71.2056" ry="18"/>
<text text-anchor="middle" x="95" y="-99.8" font-family="Times,serif" font-size="14.00" fill="#000000">AuthorsService</text>
</g>
<!-- AuthorsService&#45;&gt;AuthorsPageModule -->
<g id="edge4" class="edge">
<title>AuthorsService&#45;&gt;AuthorsPageModule</title>
<path fill="none" stroke="#000000" d="M95,-122.1061C95,-141.3391 95,-169 95,-169 95,-169 238.9927,-169 238.9927,-169"/>
<polygon fill="#000000" stroke="#000000" points="238.9928,-172.5001 248.9927,-169 238.9927,-165.5001 238.9928,-172.5001"/>
</g>
</g>
</svg>
